<svg xmlns="http://www.w3.org/2000/svg" width="347" height="418.346" viewBox="0 0 347 418.346">
  <g id="_1" data-name="1" transform="translate(-219.5 -94.358)">
    <path id="XMLID_1817_" d="M358.2,639.183l11.264-107.3,6.413-30.406,4.232-11.036,14.813-21.128L404,464.134l15.105-1.758,6.706,1.758,9.636-6.8,13.868-3.744.619-6.576,7-4.1,18.459-6.218,40.5-.391,23.961,5.111,7.129,5.111L539.694,465.6l17.808,2.735,13.12,4,12.143,10.125L593.7,498.48l13.478,33.336,10.32,32.1,10.939,30.6,10.548,41.638-10.548,5.925-15.724,1.237-15.691.358L593.7,614.864l-9.343-53.781-13.608-16.636L559.325,531.23,556.1,520.65l-11.3,4.167-13.478,7.716-5.176,1.563.065-7.683,20.77-18-27.541,11.264-6.739.977v-2.9l6.739-8.367,22.17-13.217-33.727,8.4v-4.525L495.094,501.8l-13.934-.326-3.907,8.595-29.234,5.144,1.921,3.353,22.3,3.711-4.427,5.892L426.4,534.1l-4.623,9.864-22.593,11.2,1.791,91.252-19.142,1.563-15.464-3.386Z" transform="translate(-93.546 -230.623)" fill="#fff"/>
    <path id="XMLID_1832_" d="M487.394,198.93l-11.785-4.688-1.66-7.911,1.66-6.153-7.716-1.53-6.8-9.181-2.214-4.558,3.679-7.1-9.506-5.827-3.548-8.041,1.628-8.953,12.762-7.292,11.72,2.767,13.641,3.386,12.469-6.967,7.878-12.892,12.241-9.9,17.254-8.5,14.389,2.084,10.808,5.372,2.149,6.544,8.2,2.6,10.222,7.357,3.874,8.139,1.465,14.064-1.465,10.222-8.5,18-5.6,13.152V195.9l2.963,4.362-2.963,5.111H551.755l-1.27-3.256-20.217-1.856L508,189.423,497.03,184.67l-4.688,1.66Z" transform="translate(-155.124 -0.838)" fill="#fff"/>
    <path id="XMLID_1809_" d="M395.329,378.319H372.8L347.962,367.9l-5.925-8.3L332.3,383.43l-7.26,15.919L308.8,404.233l-12.762,4.46-20.054,13.673-6.771,9.278-8.529,12.794-15.919,35-15.04,73.672-6.641,38.48L219.5,615.677l2.735,36.234L235.452,675.9l15.04,8.529,17.775,3.223,7.553-3.907,11.394-3.093,12.729-13.934,5.632-18.556,4.916-29.43-3.125-24.091-14.585,3.06-10.515-.13-17.775-8.855,3.679-49.028,14.1-89.949,17.71-31.611,17.84-7.227,14.487-.521,15.952-4.134,6.153-2.051c.293-4.851,2.67-9.962,6.9-15.333l15.919-3.451,18-1.921.1-5.176Z" transform="translate(0 -178.893)" fill="#9a5350"/>
    <path id="XMLID_1808_" d="M515.341,630.621h27.7l1.823,3.483,23.244-6.8L554.7,636.546l-7.292,8.627,5.437,3.744,12.859-4.525,9.083-3.841-11,12.11-2.93,5.827,2.539,5.925,17.742-8.562,10.45-7.357,3.972,10.646,6.739,9.994,13.38,10.873,8.4,15.692,4.883,26.467,12.176,130.48-23.83,7.781-51.73,3.972-45.024,7.357-32.262-3.516L412.5,862.966l25.491-37.178-3.451-139.3,22.984-12.7,4.069-12.208,49.386-7.52-3.483-4.916-32.881-2.767,42.256-9.929Z" transform="translate(-130.169 -359.443)" fill="#9a5350"/>
    <path id="XMLID_1807_" d="M936.914,481.7l-2.214,9.213,10.58,5.144,21.551,10.483,14.617,20.249,8.985,18.3,39.847,123.969-23.375,7.488-24.416-2.6,7.943,77.416,15.008,15.171,16.245,1.6,13.087-9.376,10.287-20.249,2.084-46.684-25.751-77.22-16.017-41.54-2.539-34.541-12.4-29.82L975.98,493.257Z" transform="translate(-482.367 -261.243)" fill="#9a5350"/>
    <path id="XMLID_1806_" d="M620.7,614.485l21.063-6.185,9.213,6.185-3.907,3Z" transform="translate(-270.589 -346.628)" fill="#9a5350"/>
    <path id="XMLID_1805_" d="M613,538.444l3.614,9.864h10.157l-6.9-13.608Z" transform="translate(-265.396 -296.989)" fill="#9a5350"/>
    <path id="XMLID_1804_" d="M559.885,574.886l-10.06-3.386-4.167,2.246-.358,5.7,14.585-3.158Z" transform="translate(-219.736 -321.809)" fill="#9a5350"/>
    <path id="XMLID_1803_" d="M736.051,457.043c0,4.493-22.919,11.3-41.312,11.3s-33.239-3.646-33.239-8.171S676.378,452,694.739,452C713.1,451.965,736.051,452.551,736.051,457.043Z" transform="translate(-298.107 -241.209)" fill="#2c2c2c"/>
    <path id="XMLID_1802_" d="M865.3,266.883l12.11-7.064,8.66-23.8-3.679-20.835,5.5-21.063,11.883-6.869,8.432-3.353,12.208,5.567L922.6,203.14l-.684,5.209,13.543-4.232,13.087,3.711,5.5,2.474,6.055,7.064,2.832,12.176-8.2,11.59L944.116,245.1,890.6,262.781l-24.351,6.381Z" transform="translate(-435.56 -60.392)" fill="#2c2c2c"/>
    <circle id="XMLID_1801_" cx="5.73" cy="5.73" r="5.73" transform="translate(458.128 105.375)" fill="#2c2c2c"/>
    <g id="XMLID_1798_" transform="translate(451.259 128.424)">
      <path id="XMLID_2738_" d="M931.4,223.97s.033-.553.1-1.465c.065-.456.065-1.009.163-1.66s.2-1.4.326-2.181q.244-1.172.586-2.539c.13-.456.293-.912.423-1.367a12.4,12.4,0,0,1,.488-1.432c.2-.488.358-.977.553-1.432s.456-.977.684-1.432c.1-.26.26-.488.358-.749l.423-.716c.293-.456.553-.977.879-1.4.326-.456.651-.879.977-1.335.326-.423.716-.814,1.074-1.237a9.759,9.759,0,0,1,1.172-1.139c.2-.163.391-.358.586-.553s.423-.326.619-.488a10.985,10.985,0,0,1,1.237-.912c.423-.26.846-.521,1.237-.749s.814-.423,1.237-.619a7.775,7.775,0,0,1,1.2-.488c.391-.13.749-.26,1.107-.358.326-.1.716-.163,1.009-.26a16.238,16.238,0,0,1,1.66-.326c.944-.1,1.465-.13,1.465-.13s-.521.2-1.367.553a13.326,13.326,0,0,0-1.53.651,15.077,15.077,0,0,0-1.888.977,8.42,8.42,0,0,0-1.009.619,10.261,10.261,0,0,0-1.074.716c-.326.26-.716.553-1.074.814-.358.293-.716.619-1.042.912-.163.163-.358.326-.553.488-.163.163-.326.326-.521.553a10.043,10.043,0,0,0-.977,1.074c-.326.391-.651.749-.977,1.172-.293.423-.586.814-.879,1.237a10.484,10.484,0,0,0-.814,1.27l-.391.651c-.1.228-.26.456-.358.684-.228.456-.488.879-.716,1.335s-.423.912-.619,1.335c-.228.423-.391.879-.586,1.3s-.358.846-.553,1.27c-.326.846-.619,1.628-.912,2.376-.26.749-.488,1.432-.716,2.051-.228.586-.358,1.172-.553,1.6C931.6,223.449,931.4,223.97,931.4,223.97Z" transform="translate(-931.4 -199)" fill="#fff"/>
    </g>
    <g id="XMLID_1795_" transform="translate(277.448 458.043)">
      <path id="XMLID_2727_" d="M397.5,1223.318s.1-.228.293-.619.488-.912.879-1.53a42.022,42.022,0,0,1,6.739-8.139c.553-.488,1.009-.879,1.367-1.139a4.8,4.8,0,0,1,.553-.391s-.1.228-.293.619-.488.911-.879,1.53a42.027,42.027,0,0,1-6.739,8.139c-.553.488-1.009.879-1.367,1.139A3.462,3.462,0,0,1,397.5,1223.318Z" transform="translate(-397.5 -1211.5)"/>
    </g>
    <g id="XMLID_1792_" transform="translate(262.603 493.723)">
      <path id="XMLID_2725_" d="M351.9,1332.918s.1-.228.293-.619.488-.911.879-1.53a42.032,42.032,0,0,1,6.739-8.139c.553-.488,1.009-.879,1.367-1.139a4.811,4.811,0,0,1,.553-.391s-.1.228-.293.619-.488.912-.879,1.53a42.027,42.027,0,0,1-6.739,8.139c-.553.488-1.009.879-1.367,1.14A5.882,5.882,0,0,0,351.9,1332.918Z" transform="translate(-351.9 -1321.1)"/>
    </g>
    <g id="XMLID_1789_" transform="translate(356.394 333.325)">
      <path id="XMLID_1815_" d="M640,840.217s.1-.228.293-.619.488-.912.879-1.53a42.03,42.03,0,0,1,6.739-8.139c.553-.488,1.009-.879,1.367-1.139a4.814,4.814,0,0,1,.553-.391s-.1.228-.293.619-.488.911-.879,1.53a42.027,42.027,0,0,1-6.739,8.139c-.553.488-1.009.879-1.367,1.139S640,840.217,640,840.217Z" transform="translate(-640 -828.4)"/>
    </g>
    <g id="XMLID_1786_" transform="translate(391.716 291.655)">
      <path id="XMLID_1813_" d="M748.5,712.217s.1-.228.293-.619.488-.912.879-1.53a42.027,42.027,0,0,1,6.739-8.139c.554-.488,1.009-.879,1.367-1.139a4.814,4.814,0,0,1,.553-.391s-.1.228-.293.619-.488.912-.879,1.53a42.032,42.032,0,0,1-6.739,8.139c-.554.488-1.009.879-1.367,1.139A4.82,4.82,0,0,1,748.5,712.217Z" transform="translate(-748.5 -700.4)"/>
    </g>
    <g id="XMLID_1783_" transform="translate(434.819 368.126)">
      <path id="XMLID_1811_" d="M880.9,947.117s.1-.228.293-.619.488-.911.879-1.53a42.031,42.031,0,0,1,6.739-8.139c.553-.488,1.009-.879,1.367-1.139a4.83,4.83,0,0,1,.554-.391s-.1.228-.293.619-.488.912-.879,1.53a42.027,42.027,0,0,1-6.739,8.139c-.553.488-1.009.879-1.367,1.139A5.871,5.871,0,0,0,880.9,947.117Z" transform="translate(-880.9 -935.3)" fill="#2c2c2c"/>
    </g>
    <g id="XMLID_1780_" transform="translate(406.268 336.385)">
      <path id="XMLID_1799_" d="M793.2,849.617s.1-.228.293-.619.488-.911.879-1.53a42.024,42.024,0,0,1,6.739-8.139c.553-.488,1.009-.879,1.367-1.139a4.824,4.824,0,0,1,.553-.391s-.1.228-.293.619-.488.911-.879,1.53a42.022,42.022,0,0,1-6.739,8.139c-.553.488-1.009.879-1.367,1.139S793.2,849.617,793.2,849.617Z" transform="translate(-793.2 -837.8)"/>
    </g>
    <g id="XMLID_1777_" transform="translate(346.595 405.597)">
      <path id="XMLID_1796_" d="M609.9,1062.217s.1-.228.293-.619.488-.911.879-1.53a42.023,42.023,0,0,1,6.739-8.139c.553-.488,1.009-.879,1.367-1.139a4.807,4.807,0,0,1,.553-.391s-.1.228-.293.619-.488.911-.879,1.53a42.02,42.02,0,0,1-6.739,8.139c-.553.488-1.009.879-1.367,1.139S609.9,1062.217,609.9,1062.217Z" transform="translate(-609.9 -1050.4)" fill="#2c2c2c"/>
    </g>
    <g id="XMLID_1774_" transform="translate(329.894 318.643)">
      <path id="XMLID_1793_" d="M558.6,795.117s.1-.228.293-.619.488-.912.879-1.53a42.027,42.027,0,0,1,6.739-8.139c.553-.488,1.009-.879,1.367-1.139a4.824,4.824,0,0,1,.553-.391s-.1.228-.293.619-.488.911-.879,1.53a42.025,42.025,0,0,1-6.739,8.139c-.553.488-1.009.879-1.367,1.14A5.85,5.85,0,0,0,558.6,795.117Z" transform="translate(-558.6 -783.3)"/>
    </g>
    <g id="XMLID_1771_" transform="translate(263.417 264.992)">
      <path id="XMLID_1790_" d="M354.4,630.317s.1-.228.293-.619.488-.911.879-1.53a42.029,42.029,0,0,1,6.739-8.139c.553-.488,1.009-.879,1.367-1.139s.553-.391.553-.391-.1.228-.293.619-.488.912-.879,1.53a42.032,42.032,0,0,1-6.739,8.139c-.553.488-1.009.879-1.367,1.139C354.628,630.155,354.4,630.317,354.4,630.317Z" transform="translate(-354.4 -618.5)" fill="#2c2c2c"/>
    </g>
    <g id="XMLID_1768_" transform="translate(391.716 396.742)">
      <path id="XMLID_1787_" d="M748.5,1035.017s.1-.228.293-.619.488-.912.879-1.53a42.024,42.024,0,0,1,6.739-8.139c.554-.488,1.009-.879,1.367-1.139s.553-.391.553-.391-.1.228-.293.619-.488.912-.879,1.53a42.046,42.046,0,0,1-6.739,8.139c-.554.488-1.009.879-1.367,1.14A4.833,4.833,0,0,1,748.5,1035.017Z" transform="translate(-748.5 -1023.2)" fill="#2c2c2c"/>
    </g>
    <g id="XMLID_1765_" transform="translate(459.072 307.444)">
      <path id="XMLID_1784_" d="M955.4,760.717s.1-.228.293-.619.488-.912.879-1.53a42.033,42.033,0,0,1,6.739-8.139c.553-.488,1.009-.879,1.367-1.139a4.82,4.82,0,0,1,.553-.391s-.1.228-.293.619-.488.912-.879,1.53a42.031,42.031,0,0,1-6.739,8.139c-.553.488-1.009.879-1.367,1.139A4.827,4.827,0,0,1,955.4,760.717Z" transform="translate(-955.4 -748.9)"/>
    </g>
    <g id="XMLID_1762_" transform="translate(485.474 352.077)">
      <path id="XMLID_1781_" d="M1036.5,897.817s.1-.228.293-.619.488-.911.879-1.53a42.036,42.036,0,0,1,6.739-8.139c.553-.488,1.009-.879,1.367-1.139a4.817,4.817,0,0,1,.553-.391s-.1.228-.293.618-.488.912-.879,1.53a42.024,42.024,0,0,1-6.739,8.139c-.553.488-1.009.879-1.367,1.139A3.448,3.448,0,0,1,1036.5,897.817Z" transform="translate(-1036.5 -886)"/>
    </g>
    <g id="XMLID_1759_" transform="translate(463.955 440.366)">
      <path id="XMLID_1778_" d="M970.4,1169.017s.1-.228.293-.618.488-.912.879-1.53a42.022,42.022,0,0,1,6.739-8.139c.553-.488,1.009-.879,1.367-1.139a4.82,4.82,0,0,1,.553-.391s-.1.228-.293.619-.488.912-.879,1.53a42.02,42.02,0,0,1-6.739,8.139c-.553.488-1.009.879-1.367,1.139A4.811,4.811,0,0,1,970.4,1169.017Z" transform="translate(-970.4 -1157.2)"/>
    </g>
    <g id="XMLID_1756_" transform="translate(378.922 456.253)">
      <path id="XMLID_1775_" d="M709.2,1217.817s.1-.228.293-.618.488-.912.879-1.53a42.017,42.017,0,0,1,6.739-8.139c.553-.488,1.009-.879,1.367-1.139a4.817,4.817,0,0,1,.554-.391s-.1.228-.293.619-.488.911-.879,1.53a42.023,42.023,0,0,1-6.739,8.139c-.553.488-1.009.879-1.367,1.139C709.428,1217.655,709.2,1217.817,709.2,1217.817Z" transform="translate(-709.2 -1206)"/>
    </g>
    <g id="XMLID_1753_" transform="translate(439.702 413.996)">
      <path id="XMLID_1772_" d="M895.9,1088.017s.1-.228.293-.619.488-.911.879-1.53a42.036,42.036,0,0,1,6.739-8.139c.554-.488,1.009-.879,1.367-1.139a4.827,4.827,0,0,1,.553-.391s-.1.228-.293.619-.488.911-.879,1.53a42.04,42.04,0,0,1-6.739,8.139c-.554.488-1.009.879-1.367,1.139A4.807,4.807,0,0,1,895.9,1088.017Z" transform="translate(-895.9 -1076.2)"/>
    </g>
    <g id="XMLID_1750_" transform="translate(331.717 497.63)">
      <path id="XMLID_1769_" d="M564.2,1344.917s.1-.228.293-.618.488-.912.879-1.53a42.031,42.031,0,0,1,6.739-8.139c.553-.488,1.009-.879,1.367-1.139a4.807,4.807,0,0,1,.553-.391s-.1.228-.293.618-.488.912-.879,1.53a42.031,42.031,0,0,1-6.739,8.139c-.553.488-1.009.879-1.367,1.139S564.2,1344.917,564.2,1344.917Z" transform="translate(-564.2 -1333.1)"/>
    </g>
    <g id="XMLID_1747_" transform="translate(416.718 497.63)">
      <path id="XMLID_1766_" d="M825.3,1344.917s.1-.228.293-.618.488-.912.879-1.53a42.037,42.037,0,0,1,6.739-8.139c.553-.488,1.009-.879,1.367-1.139a4.807,4.807,0,0,1,.553-.391s-.1.228-.293.618-.488.912-.879,1.53a42.031,42.031,0,0,1-6.739,8.139c-.553.488-1.009.879-1.367,1.139A4.847,4.847,0,0,1,825.3,1344.917Z" transform="translate(-825.3 -1333.1)"/>
    </g>
    <g id="XMLID_1744_" transform="translate(305.771 458.043)">
      <path id="XMLID_1763_" d="M484.5,1223.318s.1-.228.293-.619.488-.912.879-1.53a42.027,42.027,0,0,1,6.739-8.139c.553-.488,1.009-.879,1.367-1.139a4.809,4.809,0,0,1,.553-.391s-.1.228-.293.619-.488.911-.879,1.53a42.033,42.033,0,0,1-6.739,8.139c-.553.488-1.009.879-1.367,1.139A3.461,3.461,0,0,1,484.5,1223.318Z" transform="translate(-484.5 -1211.5)" fill="#2c2c2c"/>
    </g>
    <g id="XMLID_1723_" transform="translate(498.757 471.977)">
      <path id="XMLID_1760_" d="M1077.3,1266.117s.1-.228.293-.618.488-.912.879-1.53a42.023,42.023,0,0,1,6.739-8.139c.553-.488,1.009-.879,1.367-1.139a4.807,4.807,0,0,1,.553-.391s-.1.228-.293.618-.488.912-.879,1.53a42.031,42.031,0,0,1-6.739,8.139c-.553.488-1.009.879-1.367,1.139A5.853,5.853,0,0,0,1077.3,1266.117Z" transform="translate(-1077.3 -1254.3)"/>
    </g>
    <g id="XMLID_1720_" transform="translate(540.525 456.253)">
      <path id="XMLID_1757_" d="M1205.6,1217.817s.1-.228.293-.618.488-.912.879-1.53a42.017,42.017,0,0,1,6.739-8.139c.553-.488,1.009-.879,1.367-1.139a4.833,4.833,0,0,1,.553-.391s-.1.228-.293.619-.488.911-.879,1.53a42.017,42.017,0,0,1-6.739,8.139c-.553.488-1.009.879-1.367,1.139A5.875,5.875,0,0,0,1205.6,1217.817Z" transform="translate(-1205.6 -1206)"/>
    </g>
    <g id="XMLID_1717_" transform="translate(495.273 246.045)">
      <path id="XMLID_1754_" d="M1066.6,572.117s.1-.228.293-.619.488-.912.879-1.53a42.018,42.018,0,0,1,6.739-8.139c.553-.488,1.009-.879,1.367-1.139a4.834,4.834,0,0,1,.553-.391s-.1.228-.293.619-.488.912-.879,1.53a42.022,42.022,0,0,1-6.739,8.139c-.553.488-1.009.879-1.367,1.139A5.864,5.864,0,0,0,1066.6,572.117Z" transform="translate(-1066.6 -560.3)"/>
    </g>
    <g id="XMLID_1714_" transform="translate(511.583 481.874)">
      <path id="XMLID_1751_" d="M1116.7,1296.517s.1-.228.293-.618.488-.912.879-1.53a42.027,42.027,0,0,1,6.739-8.139c.553-.488,1.009-.879,1.367-1.139a4.82,4.82,0,0,1,.553-.391s-.1.228-.293.619-.488.911-.879,1.53a42.022,42.022,0,0,1-6.739,8.139c-.553.488-1.009.879-1.367,1.139S1116.7,1296.517,1116.7,1296.517Z" transform="translate(-1116.7 -1284.7)"/>
    </g>
    <g id="XMLID_1383_" transform="translate(547.492 481.874)">
      <path id="XMLID_1748_" d="M1227,1296.517s.1-.228.293-.618.488-.912.879-1.53a42.027,42.027,0,0,1,6.739-8.139c.553-.488,1.009-.879,1.367-1.139a4.821,4.821,0,0,1,.553-.391s-.1.228-.293.619-.488.911-.879,1.53a42.022,42.022,0,0,1-6.739,8.139c-.553.488-1.009.879-1.367,1.139S1227,1296.517,1227,1296.517Z" transform="translate(-1227 -1284.7)"/>
    </g>
    <g id="XMLID_1380_" transform="translate(308.766 368.126)">
      <path id="XMLID_1745_" d="M493.7,947.117s.1-.228.293-.619.488-.911.879-1.53a42.022,42.022,0,0,1,6.739-8.139c.553-.488,1.009-.879,1.367-1.139a4.825,4.825,0,0,1,.553-.391s-.1.228-.293.619-.488.912-.879,1.53a42.027,42.027,0,0,1-6.739,8.139c-.553.488-1.009.879-1.367,1.139C493.928,946.955,493.7,947.117,493.7,947.117Z" transform="translate(-493.7 -935.3)"/>
    </g>
    <g id="XMLID_1377_" transform="translate(239.521 396.742)">
      <path id="XMLID_1733_" d="M281,1035.017s.1-.228.293-.619.488-.912.879-1.53a42.022,42.022,0,0,1,6.739-8.139c.553-.488,1.009-.879,1.367-1.139a4.819,4.819,0,0,1,.553-.391s-.1.228-.293.619-.488.912-.879,1.53a42.034,42.034,0,0,1-6.739,8.139c-.553.488-1.009.879-1.367,1.14S281,1035.017,281,1035.017Z" transform="translate(-281 -1023.2)" fill="#2c2c2c"/>
    </g>
    <g id="XMLID_1374_" transform="translate(249.32 469.698)">
      <path id="XMLID_1730_" d="M311.1,1259.117s.1-.228.293-.618.488-.912.879-1.53a42.036,42.036,0,0,1,6.739-8.139c.553-.488,1.009-.879,1.367-1.139a4.811,4.811,0,0,1,.553-.391s-.1.228-.293.618-.488.912-.879,1.53a42.038,42.038,0,0,1-6.739,8.139c-.553.488-1.009.879-1.367,1.139A4.848,4.848,0,0,1,311.1,1259.117Z" transform="translate(-311.1 -1247.3)" fill="#2c2c2c"/>
    </g>
    <g id="XMLID_1371_" transform="translate(256.841 313.401)">
      <path id="XMLID_1727_" d="M334.2,779.017s.1-.228.293-.619.488-.911.879-1.53a42.021,42.021,0,0,1,6.739-8.139c.553-.488,1.009-.879,1.367-1.139a4.819,4.819,0,0,1,.553-.391s-.1.228-.293.619-.488.912-.879,1.53a42.027,42.027,0,0,1-6.739,8.139c-.553.488-1.009.879-1.367,1.139C334.428,778.855,334.2,779.017,334.2,779.017Z" transform="translate(-334.2 -767.2)" fill="#2c2c2c"/>
    </g>
    <path id="XMLID_931_" d="M324.257,219.317c2.246-6.478,4.818-12.859,7.357-19.207a1.643,1.643,0,0,0-.065-.488c-.358-.13-.781-.326-1.2-.456a26.984,26.984,0,0,1-6.641-3.321,16.652,16.652,0,0,1-5.339-5.925,10.731,10.731,0,0,1-.944-8.529c.13-.488.293-.977.423-1.563-.391-.163-.749-.326-1.107-.488a35.034,35.034,0,0,1-6.8-3.418,16.04,16.04,0,0,1-5.111-5.339,12.606,12.606,0,0,1-.553-12.371c.1-.228.228-.488.326-.684-.228-.619-.781-.716-1.237-.977a21.263,21.263,0,0,1-8.4-8.562,12.517,12.517,0,0,1-1.432-3.646c-.977-4.916.846-8.822,4.558-11.98,1.2-1.009,2.507-1.888,3.776-2.832a24.216,24.216,0,0,1,4.037-2.442,11.272,11.272,0,0,1,7.846-.781c1.693.423,3.386,1.009,5.079,1.53q2.783.879,5.567,1.856A28.382,28.382,0,0,0,332.1,131a11.366,11.366,0,0,0,8.627-3,18.765,18.765,0,0,0,2.735-3.06c1.107-1.628,2.181-3.256,3.288-4.883,1.2-1.791,2.442-3.581,3.711-5.306a36.127,36.127,0,0,1,7.52-7.423c2.7-1.986,5.4-3.874,8.269-5.6a54.6,54.6,0,0,1,15.3-6.446A29.79,29.79,0,0,1,402,97.366c1.465.716,2.93,1.465,4.33,2.279a14.086,14.086,0,0,1,5.892,6.641c.163.358.326.716.553,1.139.326.1.716.163,1.074.26A23.9,23.9,0,0,1,423,111.5a33.457,33.457,0,0,1,8.855,9.05,31.5,31.5,0,0,1,5.73,19.4,37.319,37.319,0,0,1-1.66,9.441,137.994,137.994,0,0,1-8.139,21c-1.432,3-2.93,5.99-4.362,9.018-2.832,5.99-2.539,12.078-.456,18.133.977,2.9.749,3.223-.716,5.827a8.772,8.772,0,0,1-.977,1.2,4.169,4.169,0,0,0-.358.651,2.991,2.991,0,0,0,1.758.423,46.667,46.667,0,0,1,7.39.814,2.386,2.386,0,0,0,2.279-.716,45.667,45.667,0,0,0,10.971-15.594,63.822,63.822,0,0,0,3.841-13.348,41.24,41.24,0,0,0,.553-6.641c0-3.353-.033-6.641-.326-9.994-.2-2.539-.326-5.111-.326-7.65a32.99,32.99,0,0,1,1.986-12.306,25.88,25.88,0,0,1,9.929-12.534c1.139-.749,2.344-1.432,3.549-2.084a18.353,18.353,0,0,1,14.454-1.3c.977.326,1.986.684,2.93,1.074a14.329,14.329,0,0,1,7.911,8.041,22.968,22.968,0,0,1,1.27,11.785,1.069,1.069,0,0,0,.065.944c.521.2.879-.13,1.27-.326a58.058,58.058,0,0,1,7.618-2.539,23.478,23.478,0,0,1,12.013.13,27.672,27.672,0,0,1,13.413,8.106,18.073,18.073,0,0,1,4.525,8.562,18.633,18.633,0,0,1,.163,6.446,19.781,19.781,0,0,1-5.6,11.622,34.747,34.747,0,0,1-8.106,5.795,105.307,105.307,0,0,1-13.641,5.925,273.834,273.834,0,0,1-29.1,8.627c-5.469,1.335-10.938,2.6-16.375,3.972a139.5,139.5,0,0,0-14.943,4.688,5.442,5.442,0,0,0-2.116,1.074c.26.13.391.293.553.326a51.186,51.186,0,0,1,8.985,2.767,13.72,13.72,0,0,1,3.907,2.246,7.285,7.285,0,0,1,2.865,4.948c.1.651.2,1.27.326,2.018a3.123,3.123,0,0,0,.912.228,85.946,85.946,0,0,1,20.314,3.093,52.419,52.419,0,0,1,28.844,18.849,81.572,81.572,0,0,1,7.292,11.394,91.318,91.318,0,0,1,8.562,23.277c1.432,6.023,2.67,12.11,3.614,18.263.684,4.395,1.335,8.79,2.018,13.185a18.671,18.671,0,0,0,.619,2.67c.716,2.311,1.465,4.59,2.181,6.9a82.991,82.991,0,0,0,3.809,10.287q6.4,14.454,11.818,29.267c3.321,9.148,6.413,18.394,9.311,27.672,2.344,7.423,4.33,14.943,6.316,22.463,1.432,5.5,2.572,11.069,3.776,16.636.423,1.986.619,4,.912,5.99.326,2.507.684,5.046.977,7.585a75.283,75.283,0,0,1,.619,8.985c0,1.888.065,3.809,0,5.7s-.13,3.809-.293,5.665c-.13,2.149-.326,4.3-.553,6.446a99.681,99.681,0,0,1-3.874,18.98,50.715,50.715,0,0,1-2.735,6.9,37.072,37.072,0,0,1-6.9,9.7,20.728,20.728,0,0,1-12.729,6.316,35.715,35.715,0,0,1-16.245-1.6,19.837,19.837,0,0,1-7.52-4.851,6.646,6.646,0,0,1-1.074-1.4,3.343,3.343,0,0,0-1.628-1.367c-.423-.163-.814-.358-1.237-.553a4.382,4.382,0,0,0-3.028-.26c-4.069.879-8.171,1.66-12.306,2.442-4.688.879-9.376,1.758-14.064,2.572-3.646.651-7.325,1.2-11,1.791-5.046.749-10.092,1.53-15.138,2.246-4.265.586-8.562,1.172-12.827,1.725-3.483.456-7,.977-10.483,1.4-2.735.326-5.437.651-8.171.912-3.809.391-7.683.749-11.492,1.074-1.693.13-3.386.293-5.079.391-5.86.326-11.752.586-17.612.944-5.046.293-10.059.228-15.105.26-4,0-7.976-.163-11.948-.228-5.306-.065-10.58-.391-15.854-.749-4.623-.293-9.278-.586-13.868-.977-3.256-.26-6.511-.651-9.734-.977l-4.688-.488c-3.125-.326-6.218-.716-9.343-1.074-2.474-.293-4.916-.586-7.39-.912-2.409-.326-4.786-.586-7.195-.977a40.829,40.829,0,0,0-12.11-.2,7.391,7.391,0,0,0-2.637.716,15.862,15.862,0,0,1-5.86,1.465c-1.107.1-2.214.26-3.321.358a37.988,37.988,0,0,1-9.018-.033,50.61,50.61,0,0,1-18.654-6.251c-.846-.488-1.628-1.074-2.507-1.5-3.516-1.725-6.283-4.427-9.376-6.706a5.475,5.475,0,0,1-1.3-1.432c-1.139-1.758-2.246-3.516-3.353-5.306a6.034,6.034,0,0,1-.586-1.432c-1.432-4.265-2.832-8.562-4.265-12.827a13.406,13.406,0,0,1-.619-3.255,42.2,42.2,0,0,0-.684-4.46,89.97,89.97,0,0,1-1.2-16.212c.033-3.06-.065-6.153-.163-9.213a70.482,70.482,0,0,1,.358-10.157c.358-3.386.814-6.739,1.335-10.125.716-4.59,1.725-9.115,2.865-13.641,1.237-5.013,2.181-10.092,3.158-15.171.456-2.377.912-4.753,1.367-7.1a5.435,5.435,0,0,0,.1-2.7,2.446,2.446,0,0,1,.065-1.172c.456-2.7.879-5.4,1.432-8.106,1.237-6.088,2.311-12.176,3.386-18.3,1.888-10.938,4-21.844,6.446-32.685.977-4.265,1.888-8.562,2.865-12.794a164.634,164.634,0,0,1,9.636-29.169c2.149-4.916,4.362-9.8,6.511-14.715a30.468,30.468,0,0,1,2.572-4.623c2.93-4.3,5.925-8.627,8.562-13.152a6.647,6.647,0,0,1,1.367-1.66,24.731,24.731,0,0,1,8.432-5.567,18.576,18.576,0,0,0,2.767-1.432c5.339-3.353,10.711-6.544,16.245-9.473a89.033,89.033,0,0,1,18.2-7.1c1.693-.456,3.418-.846,5.111-1.27A5.513,5.513,0,0,1,324.257,219.317Zm53.26,48.474c.065.033.1.033.13.065a.13.13,0,0,1-.13-.065c-.13-.488-.586-.651-.977-.911-1.432-1.009-2.9-2.018-4.3-3.028-.326-.228-.619-.456-.879-.651-1.27.391-2.442.749-3.614,1.139-1.237.391-2.507.749-3.744,1.139-1.2.326-2.409.619-3.581.977a20.221,20.221,0,0,0-3.711,1.139,22.321,22.321,0,0,0,3.614,0,87.808,87.808,0,0,1,13.087.033C374.815,267.727,376.15,267.727,377.517,267.792ZM552.533,427.083c-.586-.326-.651-.944-.846-1.465-1.074-2.93-2.116-5.892-3.158-8.855-.912-2.572-1.823-5.176-2.735-7.748a4.482,4.482,0,0,0-.456-.781c-.228.1-.358.1-.456.2a28.133,28.133,0,0,1-9.832,4.753,74.853,74.853,0,0,1-19.533,2.93c-.716,0-1.432.065-2.149.13a10.347,10.347,0,0,1-4.46-.423,10.66,10.66,0,0,0-2.93-.619,4.781,4.781,0,0,0-.163.944c.065,1.042.13,2.084.228,3.125.2,2.214.456,4.427.619,6.641a27.653,27.653,0,0,0,.521,3.288,23.4,23.4,0,0,1,.586,3.679c.2,2.735.358,5.469.423,8.2.1,4.916.488,9.8.944,14.682.423,4.46,1.042,8.953,1.563,13.413.553,4.688,1.009,9.343,1.53,14.031.228,2.018.391,4.037.553,6.055a6.307,6.307,0,0,0,.749,2.409,27.223,27.223,0,0,0,3.223,4.688,18.7,18.7,0,0,0,9.8,6.153,50.053,50.053,0,0,0,5.795.977,28.624,28.624,0,0,0,8.171-.423,16.287,16.287,0,0,0,8.562-4.46,33.436,33.436,0,0,0,7.227-10.157,56.259,56.259,0,0,0,3.158-9.05,101.608,101.608,0,0,0,2.507-13.282,117.3,117.3,0,0,0,.977-15.822c0-1.042.033-2.084-.033-3.158-.13-2.474-.26-4.948-.521-7.423-.293-2.735-.651-5.437-1.009-8.171-.26-2.018-.488-4.037-.879-5.99-1.074-5.046-2.084-10.125-3.386-15.105-2.214-8.464-4.46-16.929-7.1-25.263-4.72-14.682-9.571-29.332-15.268-43.656-.456-1.172-.912-2.311-1.367-3.483-.749-1.953-1.66-3.809-2.572-5.73a133.088,133.088,0,0,1-7.553-20.379,21.728,21.728,0,0,1-.846-4.037c-.391-3.907-1.107-7.748-1.693-11.655q-1.465-9.18-3.614-18.231a115.4,115.4,0,0,0-3.321-11.459,85.256,85.256,0,0,0-8.822-17.449,51.261,51.261,0,0,0-11.557-12.729A47.905,47.905,0,0,0,476,227.684c-2.735-.716-5.437-1.367-8.2-1.921a65.028,65.028,0,0,0-12.078-1.335c-.456,0-.912.033-1.27.065-1.2,2.181-.619,2.507.391,3.711.163.2.358.358.553.553a38.72,38.72,0,0,0,7.846,6.153,3.288,3.288,0,0,0,1.074.391c1.53.358,3.06.749,4.558,1.107a31.173,31.173,0,0,1,8.5,3.483,40.254,40.254,0,0,1,9.311,7.455,72.553,72.553,0,0,1,8.269,10.938c2.279,3.614,4.395,7.292,6.446,11,1.432,2.637,2.8,5.339,4.037,8.041,2.6,5.73,4.916,11.524,7.1,17.417q5.371,14.65,10.58,29.332c1.4,3.874,2.962,7.683,4.2,11.622.26.814.553,1.628.749,2.442,1.3,4.3,3.093,8.464,4.265,12.794,1.172,4.167,2.507,8.236,3.744,12.371,4.395,14.78,8.334,29.69,12.11,44.6,1.465,5.762,2.963,11.492,4.1,17.352a3.864,3.864,0,0,1,.13,1.921ZM432.438,271.34c-.456.1-.912.1-1.335.228-2.214.553-4.46,1.107-6.641,1.628-2.279.553-4.59.977-6.869,1.465a7.2,7.2,0,0,1-2.507,0,2.731,2.731,0,0,1-2.507-1.888c-.033-.1-.163-.163-.326-.326-.2.033-.456.033-.716.1a47.206,47.206,0,0,1-7.716,1.335,32.31,32.31,0,0,1-6.869-.033,55.127,55.127,0,0,1-6.934-1.2c-.358-.1-.749-.26-1.107.2.391,1.856-.521,3.223-1.79,4.46a9.918,9.918,0,0,1-3.06,2.116c-1.139.521-2.279.977-3.451,1.432a56,56,0,0,1-8.92,2.279c-4.3.814-8.627,1.5-12.989,2.018a4.443,4.443,0,0,0-.749.13c-.228.1-.553,0-.651.358a75.271,75.271,0,0,1,13.217,1.66,35.926,35.926,0,0,1,8.139,2.8,9.992,9.992,0,0,1,3,2.181,2,2,0,0,1,.065,2.962,6.142,6.142,0,0,1-1.563,1.172,12.614,12.614,0,0,1-2.181.846,102.448,102.448,0,0,1-19.761,3.841c-2.962.326-5.99.619-8.985.944-3.451.358-6.869.716-10.353,1.074-1.563.163-3.125.326-4.688.553-.26.651-.521,1.237-.749,1.856a18.5,18.5,0,0,1-2.7,4.981,36.977,36.977,0,0,1-11.069,10.125,53.217,53.217,0,0,1-9.539,4.525,8.846,8.846,0,0,0-2.376,1.009c0,.586-.033,1.2,0,1.758.1,2.539.2,5.111.293,7.65.13,5.111.26,10.19.326,15.3.13,7.26.293,14.487.423,21.747.1,6.088.228,12.143.391,18.231.13,5.306.326,10.58.521,15.854.065,1.563.163,3.158.1,4.688-.065,1.009.814,1.856.521,2.8a8.862,8.862,0,0,0-.228,2.93c.1,4.655.293,9.278.326,13.9.065,4.851.065,9.7-.065,14.487-.1,3.386-.358,6.8-.586,10.157a92.738,92.738,0,0,1-1.856,13.771,28.093,28.093,0,0,0-.911,6.576,3.509,3.509,0,0,1-.586,2.051A45.363,45.363,0,0,1,302.9,483.7a67.973,67.973,0,0,1-10.711,13.478c-1.628,1.628-3.321,3.158-4.948,4.753-.228.2-.553.391-.293.879,1.2.1,2.442.1,3.646.228,2.963.391,5.99.553,8.985.684,1.3.065,2.6.13,3.907.26,3.321.293,6.641.586,9.962.912,3.516.326,7.032.619,10.548.944,3.581.326,7.162.716,10.743.977,4.818.358,9.669.684,14.487.977,5.339.326,10.711.684,16.05.716,1.3,0,2.6.033,3.907.065,10.45.228,20.9.033,31.35-.521.326-.033.651-.033.977-.065,3.06-.228,6.12-.423,9.181-.651,2.214-.163,4.427-.326,6.641-.553,1.628-.13,3.256-.293,4.883-.456,1.888-.2,3.776-.423,5.632-.618,2.6-.293,5.176-.586,7.781-.912,3.614-.456,7.26-.912,10.873-1.4,4.265-.553,8.562-1.172,12.794-1.758,4.069-.553,8.171-1.2,12.208-1.823q5.811-.879,11.622-1.856c3.158-.521,6.316-1.139,9.473-1.628,5.795-.977,11.622-1.921,17.384-2.9a7.045,7.045,0,0,0,1.172-.391c-.13-.358-.2-.684-.326-.977-.358-.716-.749-1.4-1.139-2.084a6.992,6.992,0,0,1-.879-2.377c-.293-1.921-.553-3.874-.879-5.795a19.287,19.287,0,0,0-.619-3.842,3.24,3.24,0,0,1-.1-1.758,20.533,20.533,0,0,0,.065-4.688,3,3,0,0,0-.586-2.377c-.13-.13-.13-.488-.163-.749-.293-2.735-.553-5.469-.814-8.171-.1-.912-.033-1.856-.065-2.735-.033-1.107-.1-2.214-.13-3.321-.033-.586-.13-1.172-.163-1.758-.293-4.916-.553-9.8-.456-14.715a38.867,38.867,0,0,0-.553-6.446c-.619-4.525-1.2-9.05-1.79-13.608-.326-2.767-.553-5.567-.944-8.4a36.744,36.744,0,0,1-.326-5.665,9.3,9.3,0,0,0-.358-3.288,18.574,18.574,0,0,1-.781-4.623c0-.163.13-.488-.293-.521-.065.651-.1,1.3-.13,2.084a5.925,5.925,0,0,1-.651-2.767c-.26-4.037-.521-8.074-.814-12.11A88.221,88.221,0,0,0,496.8,371.87a18.593,18.593,0,0,1-.553-4.46,8.31,8.31,0,0,0-.2-1.758c-.423-2.507-.879-5.013-1.3-7.52-1.074-6.185-2.084-12.371-3.223-18.524a51.365,51.365,0,0,0-2.279-8.725,12.2,12.2,0,0,0-1.725-3.288,48.624,48.624,0,0,0-5.372-6.446c-2.572-2.507-5.176-4.981-7.781-7.455a53.644,53.644,0,0,1-8.4-10.352,21.362,21.362,0,0,1-3.386-11.1c0-.26-.1-.488-.1-.749a4.207,4.207,0,0,0-2.116.586c-3.06,1.335-6.088,2.735-9.115,4.1a44.9,44.9,0,0,0-8.041,4.883,24.124,24.124,0,0,1-2.93,1.953,10.045,10.045,0,0,1-2.507,1.074,31.437,31.437,0,0,1-4.265.684,5.943,5.943,0,0,1-2.116-.293,1.864,1.864,0,0,1-1.367-1.921,5.211,5.211,0,0,1,.1-.749,23.019,23.019,0,0,1,2.539-6.771,35.92,35.92,0,0,1,4.916-6.609c1.27-1.335,2.6-2.572,3.874-3.874.163-.163.423-.293.26-.716-.391.163-.781.358-1.2.553-2.344,1.172-4.688,2.311-7.032,3.451-3.809,1.856-7.943,2.637-11.98,3.614a4.4,4.4,0,0,1-3.549-.814,2.678,2.678,0,0,1-1.172-2.9,9.589,9.589,0,0,1,.749-2.246,17,17,0,0,1,2.507-3.972,40.437,40.437,0,0,1,4.753-4.688,79.938,79.938,0,0,1,6.446-4.753,1.18,1.18,0,0,0,1.2-.749c.033-.033.1,0,.163-.033a.243.243,0,0,0,.1-.1A.955.955,0,0,1,432.438,271.34ZM266.7,413.182a5.725,5.725,0,0,0-.163.879c-.163,1.5-.326,3-.488,4.46-.326,3.256-.716,6.478-1.042,9.734-.326,2.93-.619,5.86-.944,8.79-.326,3.125-.716,6.218-.977,9.343-.326,3.516-.619,7.032-.944,10.548-.326,4.037-.651,8.074-1.009,12.11-.26,3-.488,5.99-.879,8.985-.293,2.116-.814,4.232-1.27,6.348a6.017,6.017,0,0,1-.488,1.27.926.926,0,0,1-.944.553.974.974,0,0,1-.749-.781,8.356,8.356,0,0,1,0-1.563c.13-1.432.326-2.865.488-4.265.2-2.018.391-4.037.553-6.055.228-3.386.358-6.8.553-10.157.1-2.344.2-4.688.391-7.064.326-4.493.749-8.985,1.107-13.478.13-1.563.326-3.125.456-4.688.326-3.125.684-6.218.977-9.343.326-3.125.619-6.218.944-9.376.391-4.037.749-8.074,1.139-12.11l.488-5.469c.326-3.646.684-7.292.977-10.939.326-3.841.619-7.683.944-11.524.326-3.907.651-7.813,1.009-11.72.326-3.386.619-6.771.977-10.125.326-3.256.716-6.478,1.074-9.734.326-2.8.651-5.567.977-8.4.326-2.507.619-5.079.944-7.585.326-2.474.619-4.916.977-7.39.456-3.223.912-6.446,1.367-9.7.553-4.069,1.139-8.171,1.725-12.241.716-4.655,1.432-9.278,2.181-13.934.912-5.469,1.856-10.939,2.865-16.408a11.055,11.055,0,0,1,.651-2.246c.521-1.335,1.107-2.67,1.66-3.972a2.771,2.771,0,0,1,.553-1.009,14.1,14.1,0,0,0,2.149-3.255c.814-1.335,1.465-2.767,2.376-4.037a46.3,46.3,0,0,0,2.572-4.167,70.79,70.79,0,0,1,12.534-16.245,25.209,25.209,0,0,1,18.2-7.52,38.952,38.952,0,0,1,10.255,1.4c.619.163,1.237.326,1.856.456.488-.358.879-.684,1.3-.977a22.776,22.776,0,0,1,4.655-2.9,37.722,37.722,0,0,1,12.566-3.516,3.232,3.232,0,0,0,1.758-.456,8.775,8.775,0,0,0,.13-2.279,11.2,11.2,0,0,1,1.791-5.925,17.284,17.284,0,0,1,6.544-5.795,46.115,46.115,0,0,1,5.632-2.246,74.74,74.74,0,0,1,19.859-3.255c1.953-.065,3.907,0,5.892,0,.391,0,.781.033,1.172,0a.7.7,0,0,0,.651-.586c.065-.358.293-.749-.13-1.2-.358-.033-.781-.033-1.237-.065-.912-.033-1.856,0-2.735-.065a88.341,88.341,0,0,1-14.324-2.084,99.722,99.722,0,0,1-17.449-5.795,64.792,64.792,0,0,1-13.543-7.488,1.972,1.972,0,0,0-1.66-.488c-.651-.456-.391-1.335-1.139-1.725a3.772,3.772,0,0,0-.781.846c-.423.781-.846,1.628-1.2,2.474-.619,1.5-1.172,3.06-1.725,4.59-.228.586-.553,1.2-.781,1.791-.391.912-.846,1.758-1.2,2.7-1.042,2.963-2.149,5.892-3.418,8.757-.326.716-.586,1.432-.912,2.181a144.924,144.924,0,0,1-6.348,13.673,3.148,3.148,0,0,1-2.051,1.66,1.177,1.177,0,0,1-.749,0,2.082,2.082,0,0,0-1.335,0,103.856,103.856,0,0,0-14.292,4.818,109.175,109.175,0,0,0-12.7,6.609c-2.963,1.758-5.925,3.614-8.855,5.4-4.2,2.539-8.236,5.306-12.273,8.106a16.59,16.59,0,0,0-4.33,4.46,31.728,31.728,0,0,0-1.953,3.158c-1.139,2.116-2.279,4.265-3.256,6.478-2.7,5.958-5.339,11.915-7.976,17.905a155.756,155.756,0,0,0-7.943,22.561c-1.3,4.981-2.377,10.06-3.516,15.073-2.7,11.785-5.013,23.667-7.292,35.517-.977,5.176-1.921,10.385-3.386,15.5a7.95,7.95,0,0,0-.228,2.116,22.465,22.465,0,0,1-.2,3.321c-.781,5.306-1.628,10.58-2.507,15.854-.814,4.916-1.693,9.766-2.8,14.617-.846,3.679-1.628,7.39-2.442,11.1a128.842,128.842,0,0,0-2.083,14.52c-.326,3.451-.488,6.9-.521,10.352a179.6,179.6,0,0,0,.912,19.175,90.718,90.718,0,0,0,3.125,16.147,59.684,59.684,0,0,0,3.483,9.343,9.968,9.968,0,0,0,1.2,2.051,35.965,35.965,0,0,0,4.753,5.209,51.093,51.093,0,0,0,16.668,10.059,40.656,40.656,0,0,0,13.185,2.669c2.507.033,4.948-.065,7.455-.1a3.041,3.041,0,0,0,.781-.065,2.852,2.852,0,0,0,1.237-.521,4.476,4.476,0,0,1,3-1.237,4.928,4.928,0,0,0,2.507-1.042c.553-.456,1.139-.879,1.66-1.367a100.606,100.606,0,0,0,12.664-13.38,38.855,38.855,0,0,0,7.52-15.171c.2-.879.391-1.791.521-2.7.358-2.507.684-5.046,1.042-7.553.326-2.311.716-4.655.977-7a116.92,116.92,0,0,0,.586-13.51c.065-5.99-.13-12.045-.26-18.035-.033-1.628-.065-3.255-.1-4.916a6.13,6.13,0,0,0-.2-1.2,3.377,3.377,0,0,0-.814,0,60.027,60.027,0,0,1-12.045,1.465,50.485,50.485,0,0,1-10.157-.488,47.943,47.943,0,0,1-15.529-5.274A4.386,4.386,0,0,1,266.7,413.182Zm39.261,1.107a8.841,8.841,0,0,0,.13-2.735c-.2-6.251-.456-12.534-.651-18.817-.163-5.892-.326-11.752-.391-17.645q-.146-11.769-.2-23.537c-.033-7.65.065-15.3.1-22.951,0-.521.163-1.042-.26-1.563a13.8,13.8,0,0,0-3.223.488,7.2,7.2,0,0,1-3.353.2c.13-.228.2-.456.326-.521.553-.26,1.074-.456,1.628-.716,2.507-1.139,5.013-2.246,7.488-3.418,1.628-.781,3.288-1.628,4.916-2.377a38.413,38.413,0,0,0,14.65-10.906,21.914,21.914,0,0,0,2.8-4.265,2.809,2.809,0,0,0,.488-1.465,1.718,1.718,0,0,1,1.3-1.921,8,8,0,0,1,3.353-.977,5.1,5.1,0,0,0,.977-.163c1.986-.358,3.972-.781,5.99-1.074,5.046-.684,10.125-1.3,15.171-1.888,4.362-.521,8.66-1.172,12.989-2.084,2.409-.553,4.818-1.237,7.195-1.856.26-.065.521-.13.553-.488a2.657,2.657,0,0,0-1.432-.944,33.157,33.157,0,0,0-7.455-2.377,85.75,85.75,0,0,0-15.789-1.628c-1.107,0-2.214-.033-3.353,0a4.988,4.988,0,0,1-2.279-.423c-1.856-.814-3.711-1.628-5.567-2.474a3.262,3.262,0,0,1-.749-.456c.065-.553.358-.586.684-.651,3.809-.684,7.585-1.367,11.394-1.986,5.144-.814,10.352-1.563,15.5-2.377a60.733,60.733,0,0,0,8.985-2.018c1.563-.521,3.06-1.107,4.59-1.725a6.684,6.684,0,0,0,2.539-1.79c.2-.228.326-.553.521-.814a5.908,5.908,0,0,0-3.093-1.725,30.638,30.638,0,0,0-6.153-1.172c-3.386-.293-6.771-.456-10.19-.456-5.958.033-11.883-.033-17.84,0a31.411,31.411,0,0,0-4.3.293,4.081,4.081,0,0,1-3.516-.912,2.827,2.827,0,0,1,.553-.521,19.844,19.844,0,0,1,2.6-1.367c1.856-.716,3.679-1.367,5.567-1.888,4.2-1.2,8.4-2.377,12.631-3.581a134.835,134.835,0,0,0,13.966-4.623c1.172-.456,2.279-.977,3.386-1.53a4.93,4.93,0,0,0,2.084-1.758c-.163-.163-.26-.391-.423-.423a13.364,13.364,0,0,0-1.856-.553,34.025,34.025,0,0,0-6.8-.749,83.575,83.575,0,0,0-13.087.716c-5.111.684-10.157,1.725-15.2,2.8a35.225,35.225,0,0,1-5.209.749,40.5,40.5,0,0,0-5.241.684l-7.52,1.367c-.391.065-.749.1-1.172.163a.8.8,0,0,1-.391-.033c-.1-.065-.228-.13-.26-.26a.312.312,0,0,1,.1-.326c.488-.553,1.4-.358,1.856-1.172a16.725,16.725,0,0,1,.26-6.348c.13-.912.326-1.107,1.2-1.27a15.768,15.768,0,0,1,10.678,1.4,16.765,16.765,0,0,1,2.442,1.628,2.247,2.247,0,0,0,1.856.456c.651-.1,1.27-.326,1.888-.456a2.3,2.3,0,0,0,1.888-1.758,6.106,6.106,0,0,0,.326-1.53c.13-1.432.228-2.865.326-4.33a8.575,8.575,0,0,0-2.084-2.507,11.054,11.054,0,0,1-1.432-1.335,19.282,19.282,0,0,0-5.7-4.1,14.152,14.152,0,0,1-1.693-.944,11.858,11.858,0,0,0-4.33-1.725c-2.181-.423-4.362-.912-6.544-1.237a26.157,26.157,0,0,0-9.929.391,20.125,20.125,0,0,0-9.636,5.372,71.573,71.573,0,0,0-11.655,14.487c-.912,1.5-1.856,3-2.832,4.46a61.047,61.047,0,0,1-5.567,7.553,4.749,4.749,0,0,0-.912,1.5c-.651,1.563-1.2,3.158-1.823,4.753a8.88,8.88,0,0,0-.326,1.335c-.521,3.972-1.009,7.911-1.53,11.883-.456,3.418-.912,6.869-1.367,10.32-.456,3.483-.944,7-1.432,10.483-.456,3.418-.912,6.869-1.4,10.287-.456,3.223-.912,6.446-1.335,9.7-.456,3.516-.912,7-1.335,10.515-.521,4.232-1.009,8.432-1.5,12.664-.326,2.962-.684,5.99-1.009,8.953-.326,2.8-.619,5.567-.846,8.4-.326,3.972-.619,7.976-.944,11.915-.13,1.758-.326,3.516-.456,5.274l-.977,11.134-.684,7.423c-.2,2.149-.358,4.3-.521,6.446a6.357,6.357,0,0,0,.1,1.107,63.69,63.69,0,0,0,14.1,4.948,40.773,40.773,0,0,0,6.609.846,84.933,84.933,0,0,0,16.245-.977C304.627,414.647,305.245,414.452,305.961,414.289Zm159.585-124.36a2.863,2.863,0,0,1,.2.553,4.9,4.9,0,0,1,.033.977,16.772,16.772,0,0,0,2.93,9.8,49.626,49.626,0,0,0,8.041,9.832c1.856,1.725,3.744,3.451,5.567,5.209a40.391,40.391,0,0,1,6.739,8.139,4.489,4.489,0,0,0,.553.814,15.154,15.154,0,0,1,2.572,4.59,52.721,52.721,0,0,1,2.7,9.6c.781,4.1,1.53,8.2,2.279,12.306a9.348,9.348,0,0,0,.553,1.856,12.942,12.942,0,0,1,1.074,5.339,17.84,17.84,0,0,0,.293,3.711c.781,4.46,1.563,8.888,2.279,13.348.423,2.637.749,5.306,1.042,7.976.326,2.735.619,5.469.912,8.171.326,3.06.684,6.088.977,9.148.326,2.995.586,5.99.879,8.985a2.813,2.813,0,0,0,.2.749,6.577,6.577,0,0,0,2.93,1.009,53.374,53.374,0,0,0,13.282.293,77.414,77.414,0,0,0,10.58-1.888,32.68,32.68,0,0,0,10.45-4.3c1.758-1.2,1.888-.977,1.2-3.321-2.149-7.064-4.1-14.194-6.023-21.291-1.888-7-3.776-14.031-6.218-20.835-.488-1.367-.814-2.735-1.172-4.134-.879-3.548-1.823-7.1-3.028-10.548-1.172-3.19-2.279-6.413-3.386-9.6-2.539-7.13-5.111-14.292-7.683-21.389-3.321-9.246-6.511-18.491-10.157-27.574-1.367-3.386-2.8-6.771-4.33-10.092-1.856-4.037-4-7.943-6.218-11.785a114.324,114.324,0,0,0-7.032-10.841,51.07,51.07,0,0,0-5.762-6.674,33.01,33.01,0,0,0-14.064-8.269c-1.628-.456-3.288-.879-4.948-1.2a40.837,40.837,0,0,0-9.539-.879,68.711,68.711,0,0,0-12.6,1.791,49.827,49.827,0,0,0-14.845,5.958c-1.66,1.009-3.353,2.084-5.046,3.028a7.559,7.559,0,0,0-3.223,4.265.935.935,0,0,0,.619,1.237,7.343,7.343,0,0,0,3.841.326c.977-.13,1.921-.326,2.9-.521,6.739-1.2,13.51-2.409,20.249-3.614a13.1,13.1,0,0,1,2.507-.26,28.479,28.479,0,0,1,8.432,1.628,4.619,4.619,0,0,1,.586.358.645.645,0,0,1-.586.521,21.781,21.781,0,0,0-2.93.293c-5.534,1.367-11.036,2.735-16.44,4.525a48.056,48.056,0,0,0-11.492,5.372,13.572,13.572,0,0,1-3.093,1.693,3.669,3.669,0,0,0-1.172.716c-1.3.977-2.6,1.986-3.841,3.028a7.489,7.489,0,0,0-1.432,1.6,2.447,2.447,0,0,0-.326,1.107c-.065.2.293.521.488.521a3.322,3.322,0,0,0,.977-.1c1.009-.228,2.051-.488,3.06-.716,4.59-1.042,9.181-2.084,13.641-3.516,2.67-.846,5.372-1.628,8.074-2.474a46.028,46.028,0,0,1,8.627-1.725,34.482,34.482,0,0,1,4.1-.033c.1,0,.293.13.293.2-.033.163-.065.423-.2.488-2.9,1.66-5.762,3.386-8.757,4.786-2.6,1.2-5.209,2.474-7.781,3.744a61.354,61.354,0,0,0-12.208,8.139,33.481,33.481,0,0,0-4.037,4,12.774,12.774,0,0,0-2.214,3.776.725.725,0,0,0,.944.326c1.009-.228,2.018-.553,3.06-.749a43.357,43.357,0,0,0,10.125-3.679c2.214-1.107,4.427-2.279,6.641-3.386a68.515,68.515,0,0,1,11.427-4.688,22.062,22.062,0,0,1,5.99-.749,25.428,25.428,0,0,1,3.125.326c.1.033.228.26.293.423.033.1-.1.26-.2.293-.423.13-.879.293-1.3.391a18.653,18.653,0,0,0-7.488,3.288,95.611,95.611,0,0,0-13.12,11.492,28.158,28.158,0,0,0-4.46,6.218,25.4,25.4,0,0,0-1.3,3.06c-.1.326-.13.651.2.879a8.559,8.559,0,0,0,5.469-1.856c.553-.423,1.172-.846,1.758-1.27a48.725,48.725,0,0,1,6.316-3.939,88.959,88.959,0,0,1,9.864-4.362,21.139,21.139,0,0,1,2.442-.749,4.228,4.228,0,0,1,1.563-.1A22.747,22.747,0,0,1,465.546,289.929ZM309.184,157.789c-.293.2-.488.423-.684.456a1.686,1.686,0,0,0-1.432,1.172c-.163.423-.326.846-.456,1.3a10.639,10.639,0,0,0,1.465,8.627,12.71,12.71,0,0,0,4,4,60.687,60.687,0,0,0,8.5,4.818,1.376,1.376,0,0,1,.781,1.921c-.1.163-.163.326-.26.521a7.778,7.778,0,0,0,.326,7.846,13.528,13.528,0,0,0,3.972,4.3,27.054,27.054,0,0,0,7.032,3.418,1.932,1.932,0,0,0,.749,0,15.984,15.984,0,0,0,1.139-2.539c.814-2.116,1.6-4.265,2.442-6.413a34.943,34.943,0,0,1,1.628-3.548,5.869,5.869,0,0,1,3.939-3c.26-.065.488-.13.749-.2.1-.228.163-.391.228-.553.521-1.953.977-3.939,1.53-5.86a133.2,133.2,0,0,0,3.418-13.673,5.213,5.213,0,0,0,0-1.009q-.977-.293-1.856-.586a13.042,13.042,0,0,1-5.567-3.581,8.059,8.059,0,0,1-2.181-5.534,17.065,17.065,0,0,1,.521-4.46A13.642,13.642,0,0,1,342.325,139a9.421,9.421,0,0,1,7.032-3.386c.423,0,.879-.1,1.27-.1.163-.488-.1-.716-.26-1.009-.228-.488-.456-.944-.651-1.432a.394.394,0,0,1,.1-.326.4.4,0,0,1,.326-.065,18.441,18.441,0,0,1,2.149,1.367,23.316,23.316,0,0,0,9.05,4.1,41.7,41.7,0,0,0,7.748.977c2.344.033,4.688.065,7.064-.033a43.718,43.718,0,0,0,12.11-2.051,20.844,20.844,0,0,0,6.218-3.19,25.614,25.614,0,0,0,5.827-6.316,68.11,68.11,0,0,0,4.362-7.423c.228-.423.326-.977.977-1.2a5.577,5.577,0,0,1-.1.814,26.869,26.869,0,0,0-.749,4.851,37.3,37.3,0,0,1-.814,5.4c0,.065-.033.1-.065.2a15.145,15.145,0,0,0,1.4,9.7,30.021,30.021,0,0,0,8.139,9.7c.228.163.488.456.944.26a3.558,3.558,0,0,0,.326-.619l4.688-10.352c.553-1.2,1.074-2.377,1.628-3.581.1-.2.228-.488.651-.228-.326,1.432-.684,2.9-1.042,4.33a93.233,93.233,0,0,1-4.1,13.673,28.258,28.258,0,0,0-.977,3.093,15.877,15.877,0,0,1,1.335,5.4,11.884,11.884,0,0,1-2.767,9.115,15.4,15.4,0,0,1-4.851,3.939,3.167,3.167,0,0,0-1.628,1.856c-1.335,3.614-2.767,7.195-4.069,10.808-1.628,4.525-3.223,9.115-4.786,13.673a2.831,2.831,0,0,0-.326,1.953,3.93,3.93,0,0,0,2.246.977c1.3.1,2.6.228,3.907.326l3.711.293a11.579,11.579,0,0,0,3.516-.065,17.115,17.115,0,0,1,3.874-.553,4.693,4.693,0,0,0,2.8-1.237,4.917,4.917,0,0,0,2.018-2.767c-.1-.2-.13-.391-.228-.553a22.379,22.379,0,0,1-2.67-13.413,21.857,21.857,0,0,1,1.986-7.325c1.2-2.6,2.409-5.209,3.711-7.781a137.612,137.612,0,0,0,6.609-15.268,77.277,77.277,0,0,0,3.321-11.069,28.125,28.125,0,0,0-.13-11.883A31.863,31.863,0,0,0,427.88,121.1a29.39,29.39,0,0,0-7.976-7.683,20.853,20.853,0,0,0-5.274-2.572,13.146,13.146,0,0,0-1.432-.358c-.651.619-.358,1.791-1.465,2.084a5.708,5.708,0,0,1-.423-.912,28.084,28.084,0,0,0-2.735-5.176,11.071,11.071,0,0,0-3.614-3.548,32.879,32.879,0,0,0-4.525-2.311,27.15,27.15,0,0,0-18.394-1.432,51.027,51.027,0,0,0-13.315,5.632c-2.962,1.758-5.827,3.744-8.627,5.795a34.568,34.568,0,0,0-7.26,7.357c-1.2,1.628-2.279,3.353-3.418,5.013-1.074,1.563-2.083,3.158-3.19,4.688a19.588,19.588,0,0,1-5.372,5.111,13.314,13.314,0,0,1-4.916,1.888,24.941,24.941,0,0,1-8.79-.228,52.143,52.143,0,0,1-8.269-2.377c-1.79-.619-3.581-1.27-5.372-1.856a9.512,9.512,0,0,0-7.423.619,41.171,41.171,0,0,0-6.771,4.33,6.394,6.394,0,0,0-1.758,2.084,9.056,9.056,0,0,0-1.237,5.274,9.571,9.571,0,0,0,1.107,3.744,20.11,20.11,0,0,0,4.981,6.218c1.107.912,2.279,1.758,3.418,2.6A19.377,19.377,0,0,1,309.184,157.789Zm129.081,46.586a1.034,1.034,0,0,1,.1.293c.488-.163.977-.326,1.432-.521a131.135,131.135,0,0,1,18-5.99c5.5-1.432,11-2.767,16.505-4.167a258.8,258.8,0,0,0,25.653-7.781,99.03,99.03,0,0,0,12.924-5.665,31.318,31.318,0,0,0,7.292-5.274,14.093,14.093,0,0,0,3.125-4.688,26.506,26.506,0,0,0,1.139-3.548,13.691,13.691,0,0,0-2.669-12.013,30.062,30.062,0,0,0-2.377-2.6,24.113,24.113,0,0,0-10.743-5.827,20.043,20.043,0,0,0-9.115-.391,46.959,46.959,0,0,0-9.343,2.865,27.358,27.358,0,0,1-3.907,1.27c-1.856.521-1.856.1-1.432-1.53a25.368,25.368,0,0,0,.879-9.506,14.682,14.682,0,0,0-1.563-5.437,10.6,10.6,0,0,0-5.4-5.176,23.2,23.2,0,0,0-2.735-1.009,15.557,15.557,0,0,0-11.817.977,27.933,27.933,0,0,0-5.111,3.288,21.641,21.641,0,0,0-6.544,8.887,28.482,28.482,0,0,0-2.018,10.125c-.065,4.46.326,8.855.553,13.315a59.423,59.423,0,0,1-.912,15.008,63.959,63.959,0,0,1-4.1,13.055,40.228,40.228,0,0,1-6.641,10.58C439.111,203.366,438.688,203.854,438.265,204.375Zm-7.846,7.65c.749.13,1.335.26,1.888.358a18.886,18.886,0,0,1,2.67.684,8.54,8.54,0,0,1,2.084,1.107,3.136,3.136,0,0,1,1.172,3.646,5.855,5.855,0,0,1-.912,1.725,5.449,5.449,0,0,1-2.669,1.921,31,31,0,0,0-4.1,1.856,6.141,6.141,0,0,1-1.074.423,61.685,61.685,0,0,1-11.036,2.572c-3.288.456-6.609.814-9.929,1.237-4.069.553-8.171.781-12.306.977-3.353.163-6.641.163-9.994.163a69.428,69.428,0,0,1-11.915-.879,32.112,32.112,0,0,1-6.251-1.628,11.7,11.7,0,0,1-4.688-3.093,7.085,7.085,0,0,1-1.139-1.6,2.7,2.7,0,0,1,.358-3.288,7.746,7.746,0,0,1,1.465-1.27,29.985,29.985,0,0,1,8.139-3.809c2.377-.684,4.786-1.335,7.227-1.856a73.4,73.4,0,0,1,14.357-1.791c1.172-.033,2.344-.13,3.516-.2a72.739,72.739,0,0,1,9.6.1,60.057,60.057,0,0,0,8.009.456,48.64,48.64,0,0,1,8.4.619c2.572.358,2.572.358,4.655-1.172.1-.1.228-.13.326-.26s.13-.326.26-.553c-1.465-.033-2.832-.065-4.2-.1-1.432-.065-2.865-.2-4.3-.293-3.06-.228-6.12-.456-9.18-.749-2.084-.163-4.167-.488-6.218-.651-2.149-.163-4.3-.228-6.446-.293-1.432-.033-2.865,0-4.3.065-1.172.033-2.344.1-3.516.163l-2.344.2a79.45,79.45,0,0,0-15.854,2.409,54.64,54.64,0,0,0-8.334,2.832,14.513,14.513,0,0,0-5.111,3.841,8.777,8.777,0,0,0-2.181,4.72c-.1.716-.26,1.432-.326,2.116s-.065,1.4-.1,2.149c-1.237.391-2.442.749-3.614,1.172a23.984,23.984,0,0,1-3.776,1.074,33.015,33.015,0,0,0-5.795,1.758,23.586,23.586,0,0,0-5.892,3.06,2.281,2.281,0,0,0-.456.521,1.77,1.77,0,0,1,.13.26c.163.1.326.228.488.326a32.575,32.575,0,0,1,8.009,5.209c.163.163.456.228.586.326a1.6,1.6,0,0,0,.488-.1c.326-.1.586-.228.912-.358a28.843,28.843,0,0,1,10.385-2.572,3.5,3.5,0,0,1,2.084.326.557.557,0,0,1,.1.977,7.19,7.19,0,0,1-2.6,1.27c-.326.065-.651.065-.846.488a103.005,103.005,0,0,0,4.753,11.134c.391,0,.781.033,1.172,0,.716-.065,1.432-.2,2.149-.228a81.857,81.857,0,0,1,10.19.065,47.237,47.237,0,0,1,5.241.749,11.572,11.572,0,0,1,2.767.944,5.359,5.359,0,0,1,1.563,1.139,2.569,2.569,0,0,1,.488,3.06,7.409,7.409,0,0,1-.977,1.432,10.034,10.034,0,0,1-3.223,2.507c-1.628.749-3.256,1.4-4.851,2.084-.326.13-.781.13-.846.749,12.013,8.009,24.97,10.352,39,6.641a28.085,28.085,0,0,1,6.706-6.609,58.859,58.859,0,0,1,7.748-4.948c.26-.13.586-.2.586-.684-.326.065-.651.1-.977.13-1.758.26-3.483.553-5.241.749a8.866,8.866,0,0,1-4.916-.977,4.309,4.309,0,0,1-1.921-1.888,1.612,1.612,0,0,1-.163-1.335,10.721,10.721,0,0,1,2.214-3.874,62.005,62.005,0,0,1,10.027-8.432,28,28,0,0,1,2.735-1.53,51.52,51.52,0,0,1,11.134-3.744c1.6-.358,3.19-.651,4.851-.977.163-.326.391-.619.553-.977,1.2-2.539,2.279-5.144,3.386-7.748a15.817,15.817,0,0,0,1.172-6.674,4.73,4.73,0,0,0-1.953-4.069c-.912-.651-1.856-1.2-2.8-1.758-.846-.488-1.791-.814-2.6-1.367-2.7-1.66-5.73-2.116-8.757-2.6a3.3,3.3,0,0,0-2.084.391c-.749.423-1.5.781-2.246,1.2A6.5,6.5,0,0,1,430.419,212.025Zm-29.885-79.011-1.172,1.172a24.176,24.176,0,0,1-10.385,6.413,51.259,51.259,0,0,1-12.306,2.084c-2.149.1-4.3.1-6.446.065a37.621,37.621,0,0,1-11.557-1.823,2.412,2.412,0,0,0-1.335-.163,2.889,2.889,0,0,1-2.246-.456,9.846,9.846,0,0,0-5.274-1.2,6.083,6.083,0,0,0-4.818,2.246,10.407,10.407,0,0,0-1.823,3,14.693,14.693,0,0,0-.912,5.176,4.936,4.936,0,0,0,1.66,3.809,10.169,10.169,0,0,0,3.451,2.181c1.172.456,2.344.781,3.548,1.172.619.2,1.237.358,1.856.553a4.526,4.526,0,0,1,.912.391,1.08,1.08,0,0,1,.619.944.969.969,0,0,1-.749.814c-.358.1-.749.13-1.139.228a8.128,8.128,0,0,0-.814.26,3.718,3.718,0,0,0-.2.488,50.6,50.6,0,0,1-1.79,9.05c-1.2,4.362-2.442,8.66-3.614,13.022-.1.423-.2.879-.326,1.335.391.26.716.488,1.009.684a85.37,85.37,0,0,0,10.418,5.4,116.261,116.261,0,0,0,15.822,5.795,149.358,149.358,0,0,0,21.389,3.776,9.13,9.13,0,0,0,1.335,0,7.229,7.229,0,0,0,.977-2.409c2.6-8.4,6.316-18.2,8.757-24.319,2.507-6.381,5.079-12.762,7.585-19.11.065-.1.033-.26.065-.488-.2-.163-.423-.391-.684-.586a31.216,31.216,0,0,1-9.115-10.125,16.186,16.186,0,0,1-2.311-6.413C400.762,135.13,400.664,134.219,400.534,133.014Zm21.226,80.15c-.553-.1-.749-.2-.944-.2-4.395-.1-8.757-.26-13.152-.326-4.688-.1-9.408-.13-14.1.163a107.844,107.844,0,0,0-18.784,2.9,38.366,38.366,0,0,0-7.032,2.474,7.478,7.478,0,0,0-2.279,1.5c-.2.228-.358.521-.553.781a7.981,7.981,0,0,0,3.321,2.507,20.4,20.4,0,0,0,4.33,1.2,75.827,75.827,0,0,0,11.492,1.074c5.306.228,10.58-.228,15.854-.423,1.563-.065,3.158-.228,4.688-.358,4.427-.456,8.822-.977,13.25-1.432a34.539,34.539,0,0,0,7.1-1.3,11.644,11.644,0,0,1,1.139-.293c2.6-.423,4.981-1.6,7.455-2.377a2.77,2.77,0,0,0,1.009-.553,5.546,5.546,0,0,0,.977-.977.973.973,0,0,0-.456-1.6,11.664,11.664,0,0,0-2.084-.586c-1.432-.293-2.832-.488-4.265-.749a6.55,6.55,0,0,0-4.232.358,13.14,13.14,0,0,1-1.465.521,20.333,20.333,0,0,1-5.372,1.009,1.579,1.579,0,0,1-.586-.293C418.6,215.118,420.2,214.467,421.759,213.165Zm-73.835,28.29c1.628,3.158,3.158,6.218,3.614,9.929,2.311-.163,4.525-.651,6.869-1.009-.13-.326-.228-.586-.326-.781a25.976,25.976,0,0,1-3.223-6.446c-.358-1.042-.651-2.116-.977-3.158a.715.715,0,0,0-1.042-.553c-1.172.423-2.311.879-3.451,1.367A4.146,4.146,0,0,0,347.925,241.455Zm-19.989,15.659c1.758-.391,3.451-.749,5.144-1.172,1.2-.293,2.409-.586,3.614-.944.326-.1.586-.228.879-.326-.1-.2-.1-.358-.2-.423a20.156,20.156,0,0,0-7.976-2.442,1.142,1.142,0,0,0-1.2.781A6.745,6.745,0,0,0,327.936,257.114ZM456.724,234.13c0-.065.065-.13.033-.163a48.523,48.523,0,0,1-3.907-4.265c-.033-.033-.1-.033-.163-.065a18.306,18.306,0,0,0-2.246,4.655A34.144,34.144,0,0,0,456.724,234.13Zm-45.935-64.98a.244.244,0,0,0,.163-.033,8.821,8.821,0,0,0,2.8-6.967c0-.065-.2-.1-.293-.163A63.015,63.015,0,0,0,410.788,169.15Zm-62.343,79.337c.163,1.432-.326,2.409-.1,3.418,1.009-.065,1.2-.2,1.042-.944A4.553,4.553,0,0,0,348.446,248.487Z" transform="translate(-0.321)" fill="#2c2c2c"/>
    <path id="XMLID_928_" d="M953.619,121.7a8.575,8.575,0,0,1,7.748,4.427,5.908,5.908,0,0,1,.488,5.274,9.941,9.941,0,0,1-2.246,3.614,6.655,6.655,0,0,1-6.218,2.051,15.051,15.051,0,0,1-4.265-1.3,8.129,8.129,0,0,1-2.376-1.693,4.546,4.546,0,0,1-1.172-4.167c.228-1.009.391-2.051.619-3.06a6.168,6.168,0,0,1,2.93-3.972A8.362,8.362,0,0,1,953.619,121.7Zm-.2,3.353a6.376,6.376,0,0,0-3.19.814A2.443,2.443,0,0,0,949,127.3a27.851,27.851,0,0,0-.749,2.832,1.99,1.99,0,0,0,.781,2.084,5.057,5.057,0,0,0,1.335.814,13,13,0,0,0,2.409.781c3,.651,4.265.1,5.762-2.93.1-.163.1-.358.2-.553a2.666,2.666,0,0,0-.13-2.279A5.83,5.83,0,0,0,953.424,125.049Z" transform="translate(-489.631 -18.437)" fill="#2c2c2c"/>
    <path id="XMLID_927_" d="M281.556,1346.252c0,.1.033.163,0,.2a.247.247,0,0,1-.13.065l-.326-.326s.1-.13.1-.1A1.749,1.749,0,0,1,281.556,1346.252Z" transform="translate(-41.546 -844.227)"/>
    <path id="XMLID_926_" d="M1241.4,1116.332a1.5,1.5,0,0,0,.228.228c-.325.1-.13-.163-.163-.26Z" transform="translate(-689.221 -689.249)"/>
    <path id="XMLID_925_" d="M881.865,474.2c.1.293.228.521.163.586a8.944,8.944,0,0,1-.846,1.3A19.208,19.208,0,0,1,869.95,482.7a2.6,2.6,0,0,1-1.856,0,.607.607,0,0,1,.456-.619c.814-.358,1.693-.684,2.507-1.009,1.563-.651,3.158-1.237,4.688-1.953a13.635,13.635,0,0,0,5.339-4.167C881.279,474.721,881.539,474.526,881.865,474.2Z" transform="translate(-437.443 -256.185)"/>
    <path id="XMLID_924_" d="M744.087,270.223a10.565,10.565,0,0,1,0,1.758,4.535,4.535,0,0,1-3.614,4.134,27.543,27.543,0,0,1-3.288.456.561.561,0,0,1-.456-.26.693.693,0,0,1,.065-.553,4.653,4.653,0,0,1,1.335-1.432c.456-.358.944-.749,1.367-1.107a2.988,2.988,0,0,0,1.042-2.442,29.572,29.572,0,0,0-.977-7.748c-.163-.619-.358-1.237-.521-1.888a5.042,5.042,0,0,1-.033-2.311,1.433,1.433,0,0,1,1.628-1.074,1.285,1.285,0,0,1,1.107.977c.749,3.093,1.921,6.088,2.279,9.311.1.716.1,1.432.13,2.149C744.152,270.223,744.12,270.223,744.087,270.223Z" transform="translate(-348.823 -110.188)"/>
    <path id="XMLID_923_" d="M697.6,287.7c0-1.693.553-2.572,1.563-2.735.846-.13,1.66.456,2.116,1.628a11.4,11.4,0,0,1,.456,1.5,11.069,11.069,0,0,0,3.679,5.892,5.97,5.97,0,0,1,1.042,1.172,1.1,1.1,0,0,1-.163,1.432,2.226,2.226,0,0,1-1.432.619,4.876,4.876,0,0,1-3.776-1.563A12.23,12.23,0,0,1,697.6,287.7Z" transform="translate(-322.455 -128.542)" fill="#9a5350"/>
    <path id="XMLID_922_" d="M713.413,252.957a2.342,2.342,0,0,1-.13-.716,20.242,20.242,0,0,1,.553-4.655,3.061,3.061,0,0,1,.488-1.042,1.476,1.476,0,0,1,1.4-.553,1.377,1.377,0,0,1,1.139.944,3.416,3.416,0,0,1,.13,1.172c-.13,1.5-.326,2.963-.521,4.46a.819.819,0,0,1-1.107.781A4.281,4.281,0,0,1,713.413,252.957Z" transform="translate(-333.026 -102.265)"/>
    <path id="XMLID_921_" d="M780.491,260.952a9.265,9.265,0,0,1-1.432,4.46.8.8,0,0,1-1.009.326,7.515,7.515,0,0,1-.911-.326c-.846-.326-1.009-.651-.716-1.465a16.311,16.311,0,0,0,1.009-3.744,1.427,1.427,0,0,1,.749-1.074,1.487,1.487,0,0,1,2.083.749C780.361,260.269,780.426,260.692,780.491,260.952Z" transform="translate(-375.525 -111.009)"/>
    <path id="XMLID_920_" d="M609.989,246.965c.553-.033.944-.065,1.432-.1v-1.791a2.773,2.773,0,0,1,.13-.749.364.364,0,0,1,.26-.228,1.653,1.653,0,0,1,.553.1,1.289,1.289,0,0,1,.326.488,13.121,13.121,0,0,1,.326,6.348,3.452,3.452,0,0,1-.586,1.2.731.731,0,0,1-.684.2.911.911,0,0,1-.521-.521,3.842,3.842,0,0,1-.033-1.367,2.029,2.029,0,0,0-.651-2.116,2.583,2.583,0,0,1-.488-.814C609.957,247.486,609.989,247.29,609.989,246.965Z" transform="translate(-263.362 -100.994)"/>
    <g id="XMLID_917_" transform="translate(357.045 121.197)">
      <path id="XMLID_1724_" d="M642,184.06s.749.13,2.084.358c.651.1,1.465.26,2.409.391.944.1,1.953.326,3.125.456,1.139.13,2.377.326,3.679.391.651.065,1.335.1,2.018.163l2.084.1c.716.065,1.432.033,2.181.033.749-.033,1.465.033,2.246-.033.749-.033,1.5-.1,2.279-.1.749-.033,1.5-.13,2.279-.228l1.139-.1,1.139-.163c.358-.065.749-.1,1.139-.163.358-.065.749-.1,1.107-.2.749-.163,1.432-.326,2.181-.488.716-.163,1.4-.391,2.083-.586.326-.1.684-.2,1.009-.326.326-.1.651-.228.977-.358.651-.228,1.27-.456,1.888-.716,1.2-.553,2.344-.977,3.353-1.563a15.4,15.4,0,0,1,1.432-.749c.456-.26.846-.553,1.27-.781.391-.26.749-.488,1.107-.716.326-.2.619-.456.912-.651,1.074-.781,1.693-1.237,1.693-1.237s-.553.521-1.563,1.432a9.861,9.861,0,0,1-.846.749c-.326.26-.684.521-1.042.781-.358.293-.749.586-1.2.912-.456.293-.944.553-1.432.879a28.669,28.669,0,0,1-3.321,1.791,16.375,16.375,0,0,1-1.888.781l-.977.391c-.326.1-.684.228-1.009.326-.716.228-1.4.456-2.116.651-.749.163-1.465.358-2.214.553-.358.1-.749.163-1.139.228-.358.065-.749.13-1.139.2l-1.172.2-1.172.1c-.749.065-1.563.163-2.311.2l-2.311.1c-.749.033-1.53,0-2.279-.033-.749,0-1.5-.033-2.214-.1-.749-.065-1.432-.1-2.116-.163-.716-.1-1.367-.163-2.051-.26-1.335-.13-2.539-.391-3.711-.586-1.139-.2-2.181-.488-3.093-.684a12,12,0,0,1-1.27-.326c-.391-.1-.749-.228-1.074-.326C642.781,184.255,642,184.06,642,184.06Z" transform="translate(-642 -176.8)"/>
    </g>
    <g id="XMLID_914_" transform="translate(320.486 157.886)">
      <path id="XMLID_1721_" d="M529.7,310.954c1.367-.26,2.7-.553,4.037-.814,1.335-.293,2.669-.586,3.972-.977,1.3-.326,2.6-.749,3.874-1.2.619-.228,1.27-.456,1.888-.749.619-.26,1.237-.553,1.856-.814a15.071,15.071,0,0,0,1.758-.944c.553-.326,1.139-.684,1.693-1.042a13.671,13.671,0,0,0,1.6-1.2c.521-.423.977-.879,1.465-1.335.456-.456.911-.977,1.335-1.432l.619-.749.553-.781.553-.814.521-.846.456-.879.423-.912,2.865-5.958-1.3,6.446a23.291,23.291,0,0,1-2.018,6.12c-.26.488-.521.977-.781,1.432-.293.456-.586.912-.912,1.335a21.17,21.17,0,0,1-2.083,2.442c-.749.781-1.5,1.5-2.279,2.181-.781.716-1.563,1.4-2.344,2.083l-4.753,4.037c.684-.781,1.367-1.6,2.083-2.344s1.432-1.53,2.149-2.279c1.432-1.5,2.93-2.963,4.265-4.493.326-.391.651-.781.977-1.2.326-.391.586-.781.879-1.2a13.372,13.372,0,0,0,.781-1.27,10.318,10.318,0,0,0,.684-1.335,23.762,23.762,0,0,0,1.79-5.73l1.53.488-.456.977-.521.944-.553.912-.586.879-.619.846-.684.814c-.456.553-.944,1.042-1.432,1.563a16.758,16.758,0,0,1-1.628,1.4c-.586.423-1.139.846-1.725,1.2a20.567,20.567,0,0,1-1.823,1.074c-.619.326-1.237.619-1.888.912-1.27.553-2.6,1.009-3.907,1.432-1.335.391-2.7.716-4.037.977-.684.13-1.367.26-2.051.326l-2.051.293C532.467,310.758,531.067,310.856,529.7,310.954Z" transform="translate(-529.7 -289.5)"/>
    </g>
    <g id="XMLID_911_" transform="translate(362.058 106.899)">
      <path id="XMLID_1718_" d="M657.4,140.993s.586-.391,1.628-1.074c.553-.326,1.139-.749,1.921-1.172.749-.391,1.628-.912,2.572-1.367.488-.228.977-.456,1.5-.716a14.315,14.315,0,0,1,1.628-.684c.553-.228,1.172-.456,1.758-.684a17.564,17.564,0,0,1,1.856-.586,31.313,31.313,0,0,1,4-1.009c.684-.163,1.4-.228,2.084-.358l1.042-.163a5.994,5.994,0,0,1,1.074-.1c.716-.065,1.432-.13,2.149-.163.716,0,1.432-.033,2.116-.033.716-.033,1.432.065,2.083.1.326.033.684.065,1.009.065.326.033.684.1,1.009.13.684.1,1.335.163,1.953.293s1.237.293,1.856.423a10.543,10.543,0,0,1,1.725.521c.293.1.553.163.814.26a3.989,3.989,0,0,1,.749.293,23.145,23.145,0,0,1,2.67,1.2c.358.2.749.391,1.074.586.163.1.326.163.488.26a4.06,4.06,0,0,1,.391.293c1.009.716,1.6,1.139,1.6,1.139s-.651-.326-1.758-.846a2.694,2.694,0,0,1-.423-.228,5.392,5.392,0,0,1-.521-.2c-.326-.13-.716-.293-1.107-.423-.2-.1-.391-.163-.619-.26a3.805,3.805,0,0,0-.651-.2c-.456-.13-.944-.293-1.432-.456-.26-.1-.521-.13-.749-.2-.26-.065-.553-.1-.814-.163-.553-.1-1.107-.293-1.693-.358s-1.2-.2-1.823-.293-1.237-.1-1.888-.2l-.977-.1c-.326,0-.651-.033-.977-.033s-.684-.033-1.009-.033a5.227,5.227,0,0,0-1.009,0c-.684.033-1.367.033-2.084.065-.684.033-1.4.1-2.083.2-.326.033-.684.065-1.009.1l-1.009.13c-.684.1-1.367.163-2.051.326-.684.13-1.335.293-1.986.391s-1.3.326-1.921.456l-1.856.488c-.586.163-1.2.358-1.758.553-.293.1-.553.163-.846.26s-.553.2-.814.293c-.553.2-1.042.358-1.563.553a111.989,111.989,0,0,0-2.67,1.074q-1.172.488-2.051.879C658.051,140.732,657.4,140.993,657.4,140.993Z" transform="translate(-657.4 -132.88)"/>
    </g>
    <g id="XMLID_908_" transform="translate(355.515 115.988)">
      <path id="XMLID_1715_" d="M637.3,168.32s.716-.293,1.986-.749c.619-.228,1.4-.553,2.279-.814.879-.326,1.888-.651,3-.977s2.279-.716,3.581-1.042c1.27-.358,2.637-.716,4.037-1.042l2.149-.488c.749-.163,1.432-.326,2.214-.488.749-.13,1.5-.293,2.279-.423.749-.13,1.53-.26,2.279-.391.749-.1,1.53-.228,2.279-.326s1.53-.2,2.279-.293c1.5-.163,3-.293,4.46-.358,1.432-.1,2.865-.1,4.167-.13,1.335,0,2.572,0,3.744.1.553.033,1.139.065,1.66.1.553.033,1.009.1,1.5.13.944.1,1.758.163,2.409.293,1.335.2,2.084.326,2.084.326s-.749.033-2.116.1c-.684,0-1.465.065-2.409.1s-1.986.1-3.125.163c-.553.033-1.172.065-1.79.13s-1.237.1-1.888.13c-.651.065-1.335.13-2.018.2-.326.033-.684.065-1.042.1-.326.033-.716.1-1.042.1-.716.1-1.432.13-2.149.26-.749.1-1.465.2-2.214.293s-1.465.228-2.246.326c-.749.1-1.5.228-2.279.326-.749.1-1.5.228-2.279.326l-2.246.391c-1.465.293-2.93.521-4.33.781-1.432.26-2.767.553-4.037.749-1.3.26-2.507.488-3.614.716-2.279.456-4.134.781-5.469,1.074C638.049,168.19,637.3,168.32,637.3,168.32Z" transform="translate(-637.3 -160.8)"/>
    </g>
    <g id="XMLID_905_" transform="translate(405.584 169.704)">
      <path id="XMLID_1384_" d="M798.23,345.919c-.456-.586-.944-1.2-1.4-1.791-.228-.326-.456-.619-.651-.944a9.917,9.917,0,0,1-.619-.977l-.586-.977c-.2-.326-.358-.684-.553-1.009a6.265,6.265,0,0,1-.456-1.074c-.13-.358-.26-.749-.358-1.107s-.2-.749-.26-1.139-.13-.749-.163-1.172a6.836,6.836,0,0,1-.1-1.172c-.033-.391-.033-.749-.033-1.172-.033-1.53.1-3.028.2-4.525l1.172.326-.326.716-.326.749c-.2.488-.358.977-.553,1.465a13.4,13.4,0,0,0-.423,1.53c-.1.521-.228,1.009-.326,1.563-.1.521-.13,1.042-.2,1.563a13.123,13.123,0,0,0-.1,1.6,25.592,25.592,0,0,0,.1,3.158c.1,1.042.228,2.116.391,3.158s.358,2.116.619,3.158c.456,2.084,1.042,4.2,1.628,6.283-.423-.977-.814-2.018-1.2-3.028-.358-1.009-.716-2.051-1.009-3.093a38.812,38.812,0,0,1-1.4-6.413,27.431,27.431,0,0,1-.2-3.288,22.778,22.778,0,0,1,.228-3.321c.1-.553.2-1.107.326-1.628.13-.553.293-1.074.423-1.628.163-.553.358-1.042.553-1.6.2-.521.456-1.009.684-1.53l1.4-2.8-.228,3.125c-.065.749-.1,1.5-.163,2.246-.033.358-.065.749-.065,1.107-.033.358-.033.749-.065,1.107,0,.358-.033.749,0,1.107,0,.358,0,.749.033,1.107s.065.749.1,1.074c.033.358.1.716.163,1.074.1.326.163.716.293,1.042.1.326.228.716.358,1.042a6.649,6.649,0,0,0,.423,1.009,9.1,9.1,0,0,0,.488.977c.326.684.684,1.335,1.042,1.986Z" transform="translate(-791.1 -325.8)" fill="#2c2c2c"/>
    </g>
    <g id="XMLID_902_" transform="translate(408.597 118.723)">
      <path id="XMLID_1381_" d="M802.226,169.2s-.033.358-.1.977c-.033.326-.1.716-.13,1.139-.065.423-.1.944-.163,1.432-.065.553-.1,1.107-.163,1.725-.033.619-.1,1.237-.1,1.921-.033.326-.033.684-.065,1.009v1.009c0,.326,0,.716.033,1.042s0,.716.065,1.042c.033.326.065.716.1,1.042s.1.684.13,1.009a8.717,8.717,0,0,0,.163.977c.065.326.1.651.2.977s.163.619.26.944.2.586.293.879.228.553.326.814a3.978,3.978,0,0,0,.326.749c.26.456.456.912.684,1.27a9.959,9.959,0,0,0,.586.944c.358.521.553.814.553.814s-.293-.228-.749-.651a6.277,6.277,0,0,1-.781-.814,9.677,9.677,0,0,1-.912-1.2c-.163-.228-.293-.488-.456-.749-.13-.26-.326-.553-.423-.814-.13-.293-.26-.586-.391-.912-.1-.326-.228-.651-.326-.977s-.2-.684-.293-1.009a5.969,5.969,0,0,1-.228-1.042c-.065-.358-.1-.716-.163-1.074-.033-.358-.065-.749-.1-1.107s-.033-.749-.033-1.107-.033-.749,0-1.107c0-.358.033-.716.065-1.074.033-.326.1-.716.1-1.042.065-.684.2-1.335.293-1.953s.26-1.2.358-1.725c.13-.553.293-1.009.391-1.432a10.29,10.29,0,0,1,.358-1.074C802.128,169.526,802.226,169.2,802.226,169.2Z" transform="translate(-800.355 -169.2)"/>
    </g>
    <g id="XMLID_899_" transform="translate(329.894 191.841)">
      <path id="XMLID_1378_" d="M558.6,425.216s.586-2.084,1.693-5.111c.293-.749.553-1.6.912-2.442.326-.846.684-1.791,1.042-2.7.358-.944.749-1.888,1.172-2.865s.814-1.953,1.237-2.93.879-1.953,1.3-2.93.879-1.888,1.3-2.8.846-1.79,1.237-2.6.781-1.628,1.172-2.311c1.465-2.865,2.572-4.72,2.572-4.72s-.586,2.084-1.693,5.111c-.293.749-.553,1.6-.912,2.442-.326.846-.684,1.79-1.042,2.7-.358.944-.749,1.888-1.172,2.865s-.814,1.953-1.237,2.93-.879,1.953-1.3,2.93-.879,1.888-1.3,2.8-.846,1.791-1.237,2.6-.781,1.628-1.172,2.311C559.707,423.36,558.6,425.216,558.6,425.216Z" transform="translate(-558.6 -393.8)" fill="#fff"/>
    </g>
    <g id="XMLID_896_" transform="translate(336.763 195.097)">
      <path id="XMLID_1375_" d="M579.7,435.216s.586-2.084,1.693-5.111c.293-.749.553-1.6.911-2.442.326-.846.684-1.791,1.042-2.7.358-.944.749-1.888,1.172-2.865s.814-1.953,1.237-2.93.879-1.953,1.3-2.93.879-1.888,1.3-2.8.846-1.791,1.237-2.6.781-1.628,1.172-2.311c1.465-2.865,2.572-4.72,2.572-4.72s-.586,2.083-1.693,5.111c-.293.749-.553,1.6-.911,2.442-.326.846-.684,1.79-1.042,2.7-.358.944-.749,1.888-1.172,2.865s-.814,1.953-1.237,2.93-.879,1.953-1.3,2.93-.879,1.888-1.3,2.8-.846,1.791-1.237,2.6-.781,1.628-1.172,2.311C580.807,433.392,579.7,435.216,579.7,435.216Z" transform="translate(-579.7 -403.8)" fill="#fff"/>
    </g>
    <g id="XMLID_893_" transform="translate(347.962 199.426)">
      <path id="XMLID_1372_" d="M614.1,440.93s.1-.391.293-1.074.488-1.66.879-2.8c.2-.553.391-1.2.651-1.856.228-.651.488-1.367.749-2.083.553-1.432,1.139-2.93,1.791-4.427.619-1.465,1.3-2.962,1.953-4.33s1.27-2.637,1.856-3.711c.553-1.074,1.074-1.953,1.432-2.572s.586-.977.586-.977-.1.391-.293,1.074-.488,1.66-.879,2.8c-.358,1.172-.846,2.507-1.4,3.907-.553,1.432-1.139,2.93-1.791,4.427-.619,1.465-1.3,2.963-1.953,4.33q-.488,1.025-.977,1.953c-.326.619-.619,1.2-.911,1.758-.553,1.074-1.074,1.953-1.432,2.572A7.745,7.745,0,0,1,614.1,440.93Z" transform="translate(-614.1 -417.1)" fill="#fff"/>
    </g>
    <g id="XMLID_890_" transform="translate(266.397 418.131)">
      <path id="XMLID_918_" d="M365.458,1088.9s.065.423.1,1.172c.065.749.1,1.791.1,3.028,0,.619.033,1.3,0,2.051,0,.716,0,1.465-.033,2.279-.033.781-.033,1.6-.1,2.409-.033.814-.1,1.628-.13,2.507-.065.814-.1,1.66-.163,2.507-.065.814-.13,1.628-.228,2.409-.065.781-.163,1.53-.26,2.246s-.163,1.4-.26,2.018c-.163,1.237-.358,2.279-.488,2.995-.13.749-.228,1.139-.228,1.139s-.065-.423-.1-1.172c-.065-.749-.1-1.791-.1-3.028,0-.619-.033-1.3,0-2.051,0-.716,0-1.465.033-2.279.033-.781.033-1.6.1-2.409.033-.814.1-1.628.13-2.507.065-.814.1-1.66.163-2.507s.13-1.628.228-2.409c.065-.781.163-1.53.26-2.246s.163-1.4.26-2.018c.163-1.237.358-2.279.488-2.995C365.393,1089.291,365.458,1088.9,365.458,1088.9Z" transform="translate(-363.556 -1088.9)" fill="#fff"/>
    </g>
    <g id="XMLID_887_" transform="translate(274.015 419.563)">
      <path id="XMLID_915_" d="M388.858,1093.3s.065.423.1,1.172c.065.749.1,1.791.1,3.028,0,.619.033,1.3,0,2.051,0,.716,0,1.465-.033,2.279-.033.781-.033,1.6-.1,2.409-.033.814-.1,1.628-.13,2.507-.065.814-.1,1.66-.163,2.507-.065.814-.13,1.628-.228,2.409-.065.781-.163,1.53-.26,2.246s-.163,1.4-.26,2.018c-.163,1.237-.358,2.279-.488,2.995-.13.749-.228,1.139-.228,1.139s-.065-.423-.1-1.172c-.065-.749-.1-1.791-.1-3.028,0-.619-.033-1.3,0-2.051,0-.716,0-1.465.033-2.279.033-.781.033-1.6.1-2.409.033-.814.1-1.628.13-2.507.065-.814.1-1.66.163-2.507.065-.814.13-1.628.228-2.409.065-.781.163-1.53.26-2.246s.163-1.4.26-2.018c.163-1.237.358-2.279.488-2.995S388.858,1093.3,388.858,1093.3Z" transform="translate(-386.956 -1093.3)" fill="#fff"/>
    </g>
    <g id="XMLID_884_" transform="translate(283.619 419.563)">
      <path id="XMLID_912_" d="M418.358,1093.3s.065.423.1,1.172c.065.749.1,1.791.1,3.028,0,.619.033,1.3,0,2.051,0,.716,0,1.465-.033,2.279-.033.781-.033,1.6-.1,2.409-.033.814-.1,1.628-.13,2.507-.065.814-.1,1.66-.163,2.507-.065.814-.13,1.628-.228,2.409-.065.781-.163,1.53-.26,2.246s-.163,1.4-.26,2.018c-.163,1.237-.358,2.279-.488,2.995-.13.749-.228,1.139-.228,1.139s-.065-.423-.1-1.172c-.065-.749-.1-1.791-.1-3.028,0-.619-.033-1.3,0-2.051,0-.716,0-1.465.033-2.279.033-.781.033-1.6.1-2.409.033-.814.1-1.628.13-2.507.065-.814.1-1.66.163-2.507.065-.814.13-1.628.228-2.409.065-.781.163-1.53.26-2.246s.163-1.4.26-2.018c.163-1.237.358-2.279.488-2.995S418.358,1093.3,418.358,1093.3Z" transform="translate(-416.456 -1093.3)" fill="#fff"/>
    </g>
    <g id="XMLID_881_" transform="translate(292.441 422.037)">
      <path id="XMLID_909_" d="M445.458,1100.9s.065.423.1,1.172c.065.749.1,1.791.1,3.028,0,.619.033,1.3,0,2.051,0,.716,0,1.465-.033,2.279-.033.781-.033,1.6-.1,2.409-.033.814-.1,1.628-.13,2.507-.065.814-.1,1.66-.163,2.507-.065.814-.13,1.628-.228,2.409-.065.781-.163,1.53-.26,2.246s-.163,1.4-.26,2.018c-.163,1.237-.358,2.279-.488,2.995-.13.749-.228,1.139-.228,1.139s-.065-.423-.1-1.172c-.065-.749-.1-1.791-.1-3.028,0-.619-.033-1.3,0-2.051,0-.716,0-1.465.033-2.279.033-.781.033-1.6.1-2.409.033-.814.1-1.628.13-2.507.065-.814.1-1.66.163-2.507s.13-1.628.228-2.409c.065-.781.163-1.53.26-2.246s.163-1.4.26-2.018c.163-1.237.358-2.279.488-2.995S445.458,1100.9,445.458,1100.9Z" transform="translate(-443.556 -1100.9)" fill="#fff"/>
    </g>
    <g id="XMLID_878_" transform="translate(301.231 419.563)">
      <path id="XMLID_906_" d="M472.458,1093.3s.065.423.1,1.172c.065.749.1,1.791.1,3.028,0,.619.033,1.3,0,2.051,0,.716,0,1.465-.033,2.279-.033.781-.033,1.6-.1,2.409-.033.814-.1,1.628-.13,2.507-.065.814-.1,1.66-.163,2.507-.065.814-.13,1.628-.228,2.409-.065.781-.163,1.53-.26,2.246s-.163,1.4-.26,2.018c-.163,1.237-.358,2.279-.488,2.995-.13.749-.228,1.139-.228,1.139s-.065-.423-.1-1.172c-.065-.749-.1-1.791-.1-3.028,0-.619-.033-1.3,0-2.051,0-.716,0-1.465.033-2.279.033-.781.033-1.6.1-2.409.033-.814.1-1.628.13-2.507.065-.814.1-1.66.163-2.507.065-.814.13-1.628.228-2.409.065-.781.163-1.53.26-2.246s.163-1.4.26-2.018c.163-1.237.358-2.279.488-2.995S472.458,1093.3,472.458,1093.3Z" transform="translate(-470.556 -1093.3)" fill="#fff"/>
    </g>
    <g id="XMLID_875_" transform="translate(509.866 419.01)">
      <path id="XMLID_903_" d="M1111.645,1091.6s.1.423.26,1.139c.13.749.326,1.758.553,2.995.1.619.2,1.3.293,2.019s.2,1.465.293,2.246.163,1.6.26,2.409.13,1.628.2,2.507c.065.814.1,1.66.163,2.507.065.814.1,1.628.1,2.409.032.781.065,1.53.065,2.279q.049,1.074,0,2.051c0,1.237-.065,2.279-.1,3.028s-.1,1.172-.1,1.172-.1-.423-.26-1.14c-.13-.749-.326-1.758-.553-2.995-.1-.619-.2-1.3-.293-2.018s-.2-1.465-.293-2.246-.163-1.6-.26-2.409-.13-1.628-.2-2.507c-.065-.814-.1-1.66-.163-2.507-.065-.814-.065-1.628-.1-2.409s-.065-1.53-.065-2.279q-.049-1.074,0-2.051c0-1.237.065-2.279.1-3.028C1111.612,1092.056,1111.645,1091.6,1111.645,1091.6Z" transform="translate(-1111.425 -1091.6)" fill="#fff"/>
    </g>
    <g id="XMLID_872_" transform="translate(516.467 419.889)">
      <path id="XMLID_900_" d="M1131.7,1094.3s.13.391.391,1.107c.228.716.553,1.693.911,2.93.163.586.358,1.237.553,1.953s.391,1.432.553,2.181.391,1.563.553,2.344c.2.781.358,1.628.553,2.442l.488,2.442c.163.814.293,1.628.423,2.377s.261,1.53.326,2.246c.1.716.2,1.4.293,2.018.163,1.237.26,2.279.326,3.028s.1,1.172.1,1.172-.13-.391-.391-1.107c-.228-.716-.553-1.693-.912-2.93-.163-.586-.358-1.237-.553-1.953s-.391-1.432-.553-2.181-.391-1.563-.553-2.344c-.2-.781-.358-1.628-.553-2.442s-.326-1.628-.488-2.442-.293-1.628-.423-2.377-.26-1.53-.326-2.246c-.1-.716-.2-1.4-.293-2.018-.163-1.237-.26-2.279-.326-3.028A10.094,10.094,0,0,1,1131.7,1094.3Z" transform="translate(-1131.7 -1094.3)" fill="#fff"/>
    </g>
    <g id="XMLID_869_" transform="translate(525.745 417.349)">
      <path id="XMLID_897_" d="M1160.2,1086.5s.13.391.391,1.107c.228.716.553,1.693.911,2.93.163.586.358,1.237.553,1.953s.391,1.432.553,2.181.391,1.563.553,2.344c.2.781.358,1.628.553,2.442l.488,2.442c.163.814.293,1.628.423,2.376s.26,1.53.326,2.246c.1.716.2,1.4.293,2.018.163,1.237.26,2.279.326,3.028s.1,1.172.1,1.172-.13-.391-.391-1.107c-.228-.716-.553-1.693-.912-2.93-.163-.586-.358-1.237-.553-1.953s-.391-1.432-.553-2.181-.391-1.563-.553-2.344c-.2-.781-.358-1.628-.553-2.442l-.488-2.442c-.163-.814-.293-1.628-.423-2.376s-.26-1.53-.326-2.246c-.1-.716-.2-1.4-.293-2.018-.163-1.237-.26-2.279-.326-3.028A10.091,10.091,0,0,1,1160.2,1086.5Z" transform="translate(-1160.2 -1086.5)" fill="#fff"/>
    </g>
    <g id="XMLID_866_" transform="translate(534.893 417.415)">
      <path id="XMLID_894_" d="M1188.3,1086.7s.13.391.391,1.107c.228.716.553,1.693.911,2.93.163.586.358,1.237.553,1.953s.391,1.432.553,2.181.391,1.563.553,2.344c.2.781.358,1.628.553,2.442l.488,2.442c.163.814.293,1.628.423,2.377s.26,1.53.326,2.246c.1.716.2,1.4.293,2.018.163,1.237.26,2.279.326,3.028s.1,1.172.1,1.172-.13-.391-.391-1.107c-.228-.716-.553-1.693-.912-2.93-.163-.586-.358-1.237-.553-1.953s-.391-1.432-.553-2.181-.391-1.563-.553-2.344c-.2-.781-.358-1.628-.553-2.442l-.488-2.442c-.163-.814-.293-1.628-.423-2.376s-.26-1.53-.326-2.246c-.1-.716-.2-1.4-.293-2.018-.163-1.237-.26-2.279-.326-3.028S1188.3,1086.7,1188.3,1086.7Z" transform="translate(-1188.3 -1086.7)" fill="#fff"/>
    </g>
    <g id="XMLID_865_" transform="translate(542.706 412.694)">
      <path id="XMLID_891_" d="M1212.3,1072.2s.13.391.391,1.107c.228.716.553,1.693.912,2.93.163.586.358,1.237.553,1.953s.391,1.432.553,2.181.391,1.563.553,2.344c.2.781.358,1.628.553,2.442l.488,2.442c.163.814.293,1.628.423,2.376s.26,1.53.326,2.246c.1.716.2,1.4.293,2.019.163,1.237.26,2.279.326,3.028s.1,1.172.1,1.172-.13-.391-.391-1.107c-.228-.716-.553-1.693-.912-2.93-.163-.586-.358-1.237-.553-1.953s-.391-1.432-.553-2.181-.391-1.563-.553-2.344c-.2-.781-.358-1.628-.553-2.442l-.488-2.442c-.163-.814-.293-1.628-.423-2.377s-.26-1.53-.326-2.246c-.1-.716-.2-1.4-.293-2.018-.163-1.237-.26-2.279-.326-3.028S1212.3,1072.2,1212.3,1072.2Z" transform="translate(-1212.3 -1072.2)" fill="#fff"/>
    </g>
    <g id="XMLID_867_" transform="translate(303.752 143.725)">
      <path id="XMLID_888_" d="M478.3,246s.553.488,1.432,1.367c.456.423.977.977,1.628,1.563.326.293.651.586,1.009.944.358.326.716.684,1.139,1.009.391.326.814.716,1.27,1.074.228.2.423.358.651.553.228.163.456.358.716.553.488.358.977.749,1.465,1.139.521.358,1.042.749,1.6,1.107.26.2.553.358.814.553.293.163.553.326.846.521.553.326,1.139.716,1.758,1.042.586.326,1.2.619,1.823.977.326.163.619.293.944.423l.977.391a8.728,8.728,0,0,0,.977.391l.977.326c.651.2,1.3.456,1.953.586.326.1.651.163.977.228a5.3,5.3,0,0,0,.977.228c.651.1,1.3.2,1.953.326.651.1,1.27.1,1.888.13a9.2,9.2,0,0,0,.944.065,8.528,8.528,0,0,0,.912-.033c.586-.033,1.2-.033,1.758-.033.553-.065,1.107-.1,1.628-.163,1.042-.1,2.018-.293,2.832-.423.423-.1.814-.13,1.2-.228.358-.1.716-.163.977-.26,1.2-.326,1.921-.456,1.921-.456s-.619.326-1.791.846a9.7,9.7,0,0,1-.977.423c-.326.13-.749.26-1.172.391s-.846.293-1.335.456a5.032,5.032,0,0,1-.749.2c-.26.065-.521.1-.781.163-.553.1-1.074.26-1.66.358-.586.065-1.2.13-1.823.2a9.021,9.021,0,0,1-.977.1H505c-.326,0-.684,0-1.009-.033-.684-.065-1.4-.13-2.084-.228-.716-.1-1.432-.293-2.116-.423a12,12,0,0,1-2.116-.586l-1.042-.326c-.326-.1-.684-.293-1.009-.423l-1.009-.456a8.957,8.957,0,0,1-.977-.456c-.651-.326-1.27-.716-1.921-1.042-.619-.358-1.2-.781-1.791-1.172l-.879-.586c-.293-.228-.553-.423-.814-.619-.553-.423-1.074-.814-1.563-1.237-.488-.456-.977-.879-1.432-1.3-.228-.2-.456-.423-.684-.619-.228-.228-.423-.423-.619-.651-.391-.423-.781-.846-1.172-1.237-.749-.781-1.335-1.6-1.888-2.279s-.977-1.3-1.367-1.823A17.546,17.546,0,0,1,478.3,246Z" transform="translate(-478.3 -246)"/>
    </g>
    <circle id="XMLID_1726_" cx="3.679" cy="3.679" r="3.679" transform="translate(431.4 188.586)" fill="#2c2c2c"/>
    <g id="XMLID_1729_" transform="translate(363.393 227.131)">
      <path id="XMLID_885_" d="M661.5,502.2s.879.456,2.442,1.2c.391.163.846.326,1.335.553a9.754,9.754,0,0,0,1.563.586c.553.2,1.172.391,1.823.586.619.228,1.335.358,2.051.553l1.074.293c.358.1.749.13,1.139.228.749.13,1.6.326,2.409.488.814.1,1.693.26,2.539.358.879.13,1.791.2,2.7.293.456.065.911.1,1.4.13.456.033.944.065,1.432.065.488.033.944.065,1.432.065.488.033.977.065,1.432.065.977,0,1.921.033,2.93.033.977.033,1.953-.065,2.93-.065,1.953,0,3.907-.2,5.827-.326,1.921-.2,3.809-.326,5.632-.553.911-.1,1.823-.228,2.7-.326.456-.065.879-.1,1.3-.163l1.27-.2c.846-.13,1.628-.26,2.442-.358.781-.1,1.563-.228,2.279-.358,1.432-.26,2.8-.488,3.972-.684,1.2-.228,2.214-.423,3.06-.586,1.693-.326,2.7-.488,2.7-.488s-.944.326-2.6.814c-.814.26-1.856.553-3,.879-1.172.326-2.507.651-3.939.977-1.432.358-3.028.684-4.688,1.009-.423.1-.846.163-1.27.26s-.879.13-1.3.228c-.879.13-1.79.293-2.735.423-.912.163-1.856.26-2.8.358-.977.1-1.921.26-2.9.326-1.953.13-3.939.326-5.925.358-.977,0-1.986.1-2.963.033-.977-.033-1.986-.033-2.962-.065s-1.953-.1-2.93-.2c-.488-.033-.977-.1-1.432-.1-.488-.065-.944-.1-1.432-.163-.456-.065-.944-.1-1.4-.163a9.989,9.989,0,0,1-1.367-.228c-.879-.163-1.758-.326-2.6-.521s-1.628-.391-2.442-.619c-.391-.1-.749-.2-1.139-.326-.358-.1-.749-.26-1.074-.358-.358-.1-.716-.228-1.042-.326a8.642,8.642,0,0,1-.977-.358c-.619-.26-1.2-.521-1.79-.749-.553-.228-1.042-.521-1.53-.749q-.684-.391-1.27-.684c-.749-.456-1.3-.846-1.66-1.107A2.868,2.868,0,0,1,661.5,502.2Z" transform="translate(-661.5 -502.2)"/>
    </g>
    <g id="XMLID_1732_" transform="translate(411.281 96.846)">
      <path id="XMLID_882_" d="M809.609,102c.1.521.2.977.293,1.5s.13.977.228,1.5c.13.977.228,1.986.326,2.963.13,1.986.228,3.972.228,5.958l-1.856-.619c.586-.781,1.2-1.628,1.856-2.377.619-.781,1.27-1.563,1.921-2.311s1.335-1.5,2.051-2.246c.358-.358.716-.749,1.074-1.074s.749-.716,1.139-1.042c-.2.488-.456.944-.684,1.4s-.488.912-.749,1.335c-.521.879-1.009,1.758-1.563,2.6s-1.107,1.693-1.66,2.507-1.172,1.628-1.758,2.442l-1.856,2.474v-3.093c0-1.986.1-3.972.228-5.958.1-.977.163-1.986.326-2.963.1-.521.13-.977.228-1.5C809.414,102.977,809.544,102.521,809.609,102Z" transform="translate(-808.6 -102)"/>
    </g>
    <g id="XMLID_1735_" transform="translate(373.361 212.658)">
      <path id="XMLID_879_" d="M709.465,463.133s2.116-.228,5.827-.553c1.856-.13,4.1-.326,6.706-.358.651,0,1.335-.033,2.018,0,.326,0,.716.033,1.074.065.163.033.358.065.553.1l.293.1a1.22,1.22,0,0,1,.326.2.362.362,0,0,1,.1.326.778.778,0,0,1-.1.293c-.033.033-.065.065-.065.1l-.065.065c-.033.033-.1.065-.13.1a2.978,2.978,0,0,1-.553.293,10.649,10.649,0,0,1-1.074.456c-.749.293-1.465.521-2.246.749a92.859,92.859,0,0,1-10.06,2.474c-1.823.326-3.679.651-5.567.912a58.165,58.165,0,0,1-5.957.456,25.258,25.258,0,0,1-3.125-.1,9.738,9.738,0,0,1-3.255-.879,3.276,3.276,0,0,1-.814-.553l-.2-.2-.1-.228c-.1-.1-.228-.26-.326-.358a3.459,3.459,0,0,1-.488-.912,2.836,2.836,0,0,1-.1-1.2,3.022,3.022,0,0,1,1.074-1.856,7.122,7.122,0,0,1,1.5-1.009,25,25,0,0,1,6.251-2.018c2.116-.456,4.265-.749,6.381-1.009a121.022,121.022,0,0,1,12.762-.814,110.318,110.318,0,0,1,12.371.423,39.438,39.438,0,0,1,5.925.944,7.337,7.337,0,0,1,1.432.456,6.248,6.248,0,0,1,1.465.749,1.707,1.707,0,0,1,.358.326,1.015,1.015,0,0,1,.13.2.486.486,0,0,1,.1.228,1.189,1.189,0,0,1,.1.488,1.1,1.1,0,0,1-.228.716,2.388,2.388,0,0,1-.326.423,6.219,6.219,0,0,1-1.237.977,29.316,29.316,0,0,1-4.981,2.279q-2.442.879-4.786,1.563a79.377,79.377,0,0,1-8.529,1.953,65.474,65.474,0,0,1-6.674.879c-1.856.163-3.321.2-4.33.2-.977,0-1.53-.033-1.53-.033s.553-.033,1.53-.1c.977-.1,2.442-.228,4.265-.521,1.856-.26,4.037-.684,6.576-1.27,2.507-.586,5.339-1.367,8.334-2.344,1.5-.521,3.06-1.074,4.623-1.693a30.466,30.466,0,0,0,4.623-2.279,5.333,5.333,0,0,0,.912-.749c.1-.1.1-.26.1-.1a.2.2,0,0,0,.033.13.114.114,0,0,0,.033.065l.065.065c-.033-.033-.1-.1-.13-.1a7.941,7.941,0,0,0-1.042-.488,12.5,12.5,0,0,0-1.3-.358,38.834,38.834,0,0,0-5.7-.749c-1.953-.13-3.972-.228-5.99-.293-2.051-.065-4.1-.065-6.185,0-4.167.1-8.4.358-12.566.814-2.084.228-4.167.553-6.218.977-1.009.2-2.018.456-3,.749a17.4,17.4,0,0,0-2.767,1.042,5.913,5.913,0,0,0-1.107.716,1.36,1.36,0,0,0-.521.749c-.1.326.488,1.237,1.107,1.563a8.719,8.719,0,0,0,2.6.749,21.665,21.665,0,0,0,2.9.2,74.482,74.482,0,0,0,11.329-.977c1.791-.293,3.549-.553,5.209-.912,1.66-.326,3.288-.684,4.851-1.042.749-.2,1.53-.391,2.246-.619a9.79,9.79,0,0,0,1.042-.358,1.988,1.988,0,0,0,.456-.228c.033,0,.065-.033.1-.065,0,0,.065-.033.033-.033l.033-.033v.033a.143.143,0,0,0,.033.1c0-.033-.2-.1-.326-.13-.163-.033-.326-.065-.521-.1a5.3,5.3,0,0,0-1.009-.1c-.684-.033-1.367-.065-1.986-.065-2.572,0-4.851.1-6.706.163C711.581,462.97,709.465,463.133,709.465,463.133Z" transform="translate(-692.119 -457.743)" fill="#fff"/>
    </g>
  </g>
</svg>
